<?xml version="1.0" encoding="utf-8"?>
<!-- Generator: Fusion 360, Shaper Origin Export Add-In, Version 1.8.0  -->
<svg xmlns="http://www.w3.org/2000/svg" xmlns:xlink="http://www.w3.org/1999/xlink" xmlns:shaper="http://www.shapertools.com/namespaces/shaper" shaper:fusionaddin="version:1.8.0" width="10.0388032cm" height="15cm" version="1.1" x="0cm" y="0cm" viewBox="0 0 10.0388032 15" enable-background="new 0 0 10.0388032 15" xml:space="preserve"><path d="M-0,-11.3 L-0,-11.3 0.0929256,-11.2997345 0.1849681,-11.2989316 0.2761364,-11.2975821 0.3664396,-11.2956767 0.4558865,-11.293206 0.5444863,-11.2901607 0.6322478,-11.2865317 0.71918,-11.2823094 0.805292,-11.2774847 0.8905927,-11.2720481 0.9750911,-11.2659905 1.0587962,-11.2593025 1.141717,-11.2519748 1.2238624,-11.2439981 1.3052414,-11.2353631 1.385863,-11.2260604 1.4657363,-11.2160808 1.5448701,-11.2054149 1.6232734,-11.1940535 1.7009553,-11.1819873 1.7779247,-11.1692069 1.8541906,-11.155703 1.929762,-11.1414663 2.0046479,-11.1264875 2.0788572,-11.1107573 2.1523989,-11.0942664 2.2252954,-11.076995 2.2975804,-11.0589016 2.3692486,-11.0399634 2.4402932,-11.0201583 2.5107074,-10.9994647 2.5804844,-10.9778606 2.6496173,-10.9553242 2.7180994,-10.9318336 2.7859237,-10.9073668 2.8530836,-10.8819022 2.9195721,-10.8554177 2.9853825,-10.8278915 3.0505079,-10.7993018 3.1149415,-10.7696267 3.1786765,-10.7388444 3.241706,-10.7069329 3.3040232,-10.6738703 3.3656214,-10.6396349 3.4264936,-10.6042048 3.4866222,-10.5675473 3.5459354,-10.5296034 3.6043929,-10.4903822 3.6619611,-10.4499018 3.7186064,-10.4081801 3.7742951,-10.365235 3.8289936,-10.3210846 3.8826683,-10.2757467 3.9352855,-10.2292393 3.9868115,-10.1815804 4.0372128,-10.1327879 4.0864556,-10.0828797 4.1345064,-10.0318739 4.1813314,-9.9797883 4.2268971,-9.926641 4.2711698,-9.8724498 4.3141159,-9.8172328 4.3557016,-9.7610078 4.3958904,-9.7038082 4.4346455,-9.6457605 4.4719761,-9.5869132 4.5078974,-9.5272956 4.5424245,-9.4669372 4.5755729,-9.4058672 4.6073576,-9.344115 4.6377939,-9.2817099 4.6668972,-9.2186812 4.6946825,-9.1550584 4.7211653,-9.0908706 4.7463607,-9.0261473 4.7702839,-8.9609179 4.7929502,-8.8952116 4.8143749,-8.8290577 4.8345731,-8.7624857 4.8535602,-8.6955248 4.8713514,-8.6282045 4.8879619,-8.560554 4.9034363,-8.4925869 4.9178493,-8.4242841 4.931221,-8.3556423 4.9435699,-8.2866586 4.9549142,-8.2173305 4.9652724,-8.1476552 4.974663,-8.07763 4.9831044,-8.0072523 4.990615,-7.9365193 4.9972132,-7.8654284 5.0029175,-7.7939768 5.0077462,-7.7221619 5.0117178,-7.6499809 5.0148507,-7.5774312 5.0171634,-7.50451 5.0186742,-7.4312147 5.0194016,-7.3575426 5.019364,-7.283491 5.0185799,-7.2090571 5.0170675,-7.1342383 5.0148455,-7.0590319 5.0119322,-6.9834352 5.0083459,-6.9074455 5.0041052,-6.8310601 4.9992285,-6.7542763 4.9937342,-6.6770914 4.9876336,-6.5994945 4.980921,-6.5214655 4.9736031,-6.4430094 4.9656876,-6.3641324 4.9571821,-6.2848407 4.9480943,-6.2051408 4.938432,-6.1250388 4.9282027,-6.0445411 4.9174141,-5.963654 4.906074,-5.8823837 4.8941899,-5.8007364 4.8817695,-5.7187186 4.8688206,-5.6363365 4.8553508,-5.5535963 4.8413677,-5.4705043 4.826879,-5.3870669 4.7964156,-5.2191809 4.764022,-5.0499883 4.7297594,-4.8795395 4.6936893,-4.7078849 4.655873,-4.5350745 4.6163719,-4.3611588 4.5752472,-4.1861887 4.5325555,-4.0102609 4.488341,-3.8335068 4.4426466,-3.6560511 4.395515,-3.4780186 4.3469889,-3.2995338 4.2971112,-3.1207216 4.2459246,-2.9417065 4.1934718,-2.7626134 4.1397955,-2.5835667 4.0849387,-2.4046914 4.0289439,-2.2261119 3.9718539,-2.0479531 3.9137116,-1.8703396 3.8545596,-1.6933961 3.7944407,-1.5172473 3.7333976,-1.3420178 3.6714732,-1.1678324 3.6087102,-0.9948158 3.5451512,-0.8230926 3.4808392,-0.6527876 3.4158168,-0.4840253 3.3501297,-0.316953 3.2838094,-0.1517436 3.2168624,0.0114935 3.1492939,0.172652 3.0811096,0.3316258 3.0467882,0.4102603 3.0123149,0.4883087 2.9776903,0.5657579 2.9429151,0.6425946 2.9079901,0.7188054 2.8729159,0.7943771 2.8376932,0.8692964 2.8023227,0.9435501 2.766805,1.0171248 2.7311409,1.0900074 2.695331,1.1621845 2.659376,1.2336428 2.6232766,1.3043691 2.5870334,1.3743501 2.5506473,1.4435726 2.5141187,1.5120232 2.4774485,1.5796887 2.4406467,1.6465593 2.4037114,1.7126318 2.3666251,1.777902 2.3293701,1.8423661 2.2919289,1.9060199 2.2542838,1.9688595 2.2164172,2.030881 2.1783114,2.0920803 2.1399489,2.1524534 2.101312,2.2119964 2.0623832,2.2707052 2.0231447,2.3285759 1.9835789,2.3856045 1.9436683,2.4417869 1.9033952,2.4971193 1.862742,2.5515976 1.8216911,2.6052177 1.7802249,2.6579758 1.7383256,2.7098678 1.6959748,2.7609027 1.6531298,2.8111311 1.6097234,2.8605339 1.5656875,2.9090823 1.5209539,2.9567476 1.4754545,3.0035009 1.4291211,3.0493134 1.3818855,3.0941563 1.3336797,3.1380007 1.2844353,3.180818 1.2340843,3.2225791 1.1825584,3.2632555 1.1297896,3.3028181 1.0757097,3.3412383 1.0202505,3.3784872 0.963283,3.4145175 0.9046424,3.4491869 0.8443326,3.482329 0.8135547,3.4982754 0.782363,3.5137777 0.7507589,3.5288152 0.7187435,3.5433672 0.6863181,3.5574128 0.6534837,3.5709313 0.6202417,3.583902 0.5865932,3.5963042 0.5525394,3.608117 0.5180816,3.6193197 0.483221,3.6298917 0.4479587,3.6398121 0.412296,3.6490602 0.3762341,3.6576152 0.339776,3.6654554 0.3029662,3.6725423 0.2658469,3.6788528 0.2284498,3.6843715 0.1908065,3.6890831 0.1529484,3.6929724 0.1149071,3.696024 0.0767143,3.6982227 0.0384014,3.6995531 0,3.7 0,3.7 -0.0384014,3.6995531 -0.0767143,3.6982227 -0.1149071,3.696024 -0.1529484,3.6929724 -0.1908065,3.6890831 -0.2284498,3.6843715 -0.2658469,3.6788528 -0.3029662,3.6725423 -0.339776,3.6654554 -0.3762341,3.6576152 -0.412296,3.6490602 -0.4479587,3.6398121 -0.483221,3.6298917 -0.5180816,3.6193197 -0.5525394,3.608117 -0.5865932,3.5963042 -0.6202417,3.583902 -0.6534837,3.5709313 -0.686318,3.5574128 -0.7187435,3.5433672 -0.7507589,3.5288152 -0.782363,3.5137777 -0.8135546,3.4982754 -0.8443326,3.482329 -0.9046424,3.4491869 -0.963283,3.4145175 -1.0202505,3.3784872 -1.0757097,3.3412383 -1.1297896,3.3028181 -1.1825584,3.2632555 -1.2340843,3.2225791 -1.2844353,3.180818 -1.3336797,3.1380007 -1.3818855,3.0941563 -1.4291211,3.0493134 -1.4754545,3.0035009 -1.5209539,2.9567476 -1.5656875,2.9090823 -1.6097234,2.8605339 -1.6531298,2.8111311 -1.6959748,2.7609027 -1.7383256,2.7098679 -1.7802249,2.6579758 -1.8216911,2.6052177 -1.862742,2.5515976 -1.9033952,2.4971193 -1.9436683,2.4417869 -1.9835789,2.3856045 -2.0231447,2.3285759 -2.0623832,2.2707052 -2.101312,2.2119964 -2.1399489,2.1524534 -2.1783114,2.0920803 -2.2164172,2.030881 -2.2542838,1.9688595 -2.2919289,1.9060199 -2.3293701,1.8423661 -2.3666251,1.777902 -2.4037114,1.7126318 -2.4406467,1.6465594 -2.4774485,1.5796887 -2.5141187,1.5120232 -2.5506473,1.4435726 -2.5870334,1.3743501 -2.6232766,1.3043691 -2.659376,1.2336428 -2.695331,1.1621845 -2.7311409,1.0900074 -2.766805,1.0171248 -2.8023227,0.9435501 -2.8376932,0.8692964 -2.8729159,0.7943771 -2.9079901,0.7188054 -2.9429151,0.6425946 -2.9776903,0.5657579 -3.0123149,0.4883088 -3.0467882,0.4102603 -3.0811096,0.3316258 -3.1492939,0.172652 -3.2168624,0.0114935 -3.2838094,-0.1517436 -3.3501297,-0.316953 -3.4158168,-0.4840253 -3.4808392,-0.6527876 -3.5451512,-0.8230926 -3.6087102,-0.9948158 -3.6714732,-1.1678324 -3.7333976,-1.3420178 -3.7944407,-1.5172472 -3.8545596,-1.6933961 -3.9137116,-1.8703396 -3.9718539,-2.0479531 -4.0289439,-2.2261119 -4.0849387,-2.4046913 -4.1397955,-2.5835667 -4.1934718,-2.7626133 -4.2459246,-2.9417065 -4.2971112,-3.1207216 -4.3469889,-3.2995338 -4.395515,-3.4780186 -4.4426466,-3.6560511 -4.488341,-3.8335068 -4.5325555,-4.0102609 -4.5752472,-4.1861887 -4.6163719,-4.3611588 -4.655873,-4.5350745 -4.6936893,-4.7078848 -4.7297594,-4.8795395 -4.764022,-5.0499883 -4.7964156,-5.2191808 -4.826879,-5.3870669 -4.8413677,-5.4705043 -4.8553508,-5.5535963 -4.8688206,-5.6363365 -4.8817696,-5.7187186 -4.8941899,-5.8007364 -4.906074,-5.8823836 -4.9174141,-5.963654 -4.9282027,-6.0445411 -4.938432,-6.1250388 -4.9480943,-6.2051408 -4.9571821,-6.2848407 -4.9656876,-6.3641323 -4.9736031,-6.4430094 -4.980921,-6.5214655 -4.9876336,-6.5994945 -4.9937342,-6.6770914 -4.9992285,-6.7542763 -5.0041053,-6.8310601 -5.0083459,-6.9074455 -5.0119322,-6.9834352 -5.0148455,-7.0590319 -5.0170676,-7.1342383 -5.0185799,-7.2090571 -5.019364,-7.2834909 -5.0194016,-7.3575426 -5.0186742,-7.4312147 -5.0171634,-7.50451 -5.0148507,-7.5774312 -5.0117178,-7.6499809 -5.0077462,-7.7221619 -5.0029175,-7.7939768 -4.9972132,-7.8654284 -4.990615,-7.9365193 -4.9831044,-8.0072523 -4.9746631,-8.07763 -4.9652725,-8.1476552 -4.9549142,-8.2173305 -4.9435699,-8.2866586 -4.9312211,-8.3556422 -4.9178493,-8.4242841 -4.9034363,-8.4925869 -4.8879619,-8.5605539 -4.8713514,-8.6282045 -4.8535603,-8.6955248 -4.8345732,-8.7624857 -4.8143749,-8.8290577 -4.7929502,-8.8952115 -4.7702839,-8.9609179 -4.7463607,-9.0261473 -4.7211653,-9.0908706 -4.6946826,-9.1550583 -4.6668972,-9.2186812 -4.6377939,-9.2817099 -4.6073576,-9.344115 -4.5755729,-9.4058672 -4.5424246,-9.4669372 -4.5078974,-9.5272956 -4.4719762,-9.5869132 -4.4346456,-9.6457604 -4.3958904,-9.7038082 -4.3557016,-9.7610078 -4.3141159,-9.8172328 -4.2711698,-9.8724498 -4.2268972,-9.926641 -4.1813315,-9.9797883 -4.1345064,-10.0318739 -4.0864557,-10.0828797 -4.0372128,-10.1327879 -3.9868116,-10.1815804 -3.9352855,-10.2292393 -3.8826683,-10.2757467 -3.8289937,-10.3210845 -3.7742951,-10.365235 -3.7186064,-10.4081801 -3.6619611,-10.4499018 -3.6043929,-10.4903822 -3.5459354,-10.5296034 -3.4866223,-10.5675473 -3.4264937,-10.6042048 -3.3656214,-10.6396349 -3.3040233,-10.6738703 -3.241706,-10.7069328 -3.1786765,-10.7388444 -3.1149415,-10.7696267 -3.0505079,-10.7993018 -2.9853825,-10.8278915 -2.9195722,-10.8554177 -2.8530836,-10.8819022 -2.7859238,-10.9073668 -2.7180994,-10.9318335 -2.6496173,-10.9553242 -2.5804844,-10.9778606 -2.5107074,-10.9994647 -2.4402932,-11.0201583 -2.3692486,-11.0399634 -2.2975804,-11.0589016 -2.2252955,-11.076995 -2.1523989,-11.0942664 -2.0788572,-11.1107573 -2.0046479,-11.1264875 -1.929762,-11.1414663 -1.8541907,-11.1557029 -1.7779247,-11.1692068 -1.7009553,-11.1819873 -1.6232734,-11.1940535 -1.5448701,-11.2054149 -1.4657363,-11.2160808 -1.3858631,-11.2260604 -1.3052414,-11.2353631 -1.2238624,-11.2439981 -1.141717,-11.2519748 -1.0587963,-11.2593025 -0.9750912,-11.2659905 -0.8905928,-11.2720481 -0.8052921,-11.2774847 -0.7191801,-11.2823094 -0.6322478,-11.2865317 -0.5444863,-11.2901607 -0.4558865,-11.293206 -0.3664396,-11.2956767 -0.2761364,-11.2975821 -0.1849681,-11.2989316 -0.0929256,-11.2997345 -0,-11.3z" transform="matrix(1,0,0,-1,5.0194016,3.7)" fill="rgb(0,0,0)" stroke-linecap="round" stroke-linejoin="round" /><path d="M-1.9994354,0.3005375 A2.9,2.9 133.5874172 0,0 1.9994354,0.3005375 L1.9994354,0.3005375 1.9430512,0.4214978 1.8864875,0.5401993 1.8297671,0.6565544 1.8013551,0.7138251 1.7729122,0.7704768 1.7444412,0.826499 1.7159448,0.8818811 1.6874255,0.9366126 1.658886,0.9906831 1.6303288,1.0440823 1.6017566,1.0967999 1.5731719,1.1488258 1.5445771,1.2001499 1.5159747,1.2507623 1.4873672,1.3006531 1.4587569,1.3498124 1.4301461,1.3982307 1.4015373,1.4458983 1.3729326,1.4928058 1.3443345,1.5389438 1.3157449,1.5843031 1.2871663,1.6288745 1.2586006,1.672649 1.23005,1.7156178 1.2015166,1.7577719 1.1730025,1.7991029 1.1445096,1.8396022 1.1160398,1.8792614 1.0875952,1.9180722 1.0591775,1.9560265 1.0307888,1.9931164 1.0024306,2.029334 0.9741049,2.0646716 0.9458133,2.0991217 0.9175576,2.1326769 0.8893393,2.16533 0.8611602,2.1970739 0.8330217,2.2279016 0.8049253,2.2578065 0.7768726,2.2867818 0.7488651,2.3148213 0.720904,2.3419187 0.6929907,2.3680678 0.6651266,2.3932628 0.6373129,2.4174979 0.6095508,2.4407677 0.5818415,2.4630668 0.5541861,2.4843901 0.5265858,2.5047325 0.4990415,2.5240894 0.4715542,2.5424563 0.4441249,2.5598286 0.4167544,2.5762025 0.3894436,2.5915738 0.3621933,2.605939 0.3350043,2.6192945 0.3078772,2.6316372 0.2808126,2.6429639 0.2538112,2.6532719 0.2268735,2.6625586 0.2,2.6708217 0.2,2.8772277 0.2,2.8772277 0.2383849,2.8677231 0.2765471,2.8566364 0.3144493,2.8440015 0.352067,2.8298964 0.389407,2.8143564 0.4264802,2.7974019 0.4632973,2.7790532 0.499869,2.7593306 0.5362062,2.7382546 0.5723197,2.7158454 0.6082201,2.6921235 0.6439184,2.6671091 0.6794251,2.6408227 0.7147513,2.6132845 0.7499075,2.584515 0.7849047,2.5545345 0.8197535,2.5233633 0.8544647,2.4910217 0.8890492,2.4575303 0.9235176,2.4229092 0.9578808,2.3871788 0.9921635,2.3503315 1.0263838,2.3123541 1.0605428,2.2732575 1.0946419,2.2330528 1.1286824,2.1917512 1.1626656,2.1493636 1.1965928,2.1059012 1.2304652,2.0613749 1.2642842,2.0157959 1.298051,1.9691752 1.3317669,1.9215238 1.3654333,1.8728528 1.3990513,1.8231733 1.4326224,1.7724963 1.4661477,1.7208329 1.4996287,1.6681942 1.5330665,1.6145912 1.5664624,1.5600349 1.5998178,1.5045364 1.633134,1.4481069 1.6664122,1.3907572 1.6996537,1.3324986 1.7328598,1.273342 1.7660318,1.2132985 1.799171,1.1523792 1.8322787,1.0905951 1.8653557,1.0279574 1.8983948,0.96448 1.93139,0.900179 1.9643372,0.8350707 1.9972319,0.7691715 2.03007,0.7024976 2.0628472,0.6350652 2.0955593,0.5668907 2.1282019,0.4979904 2.1607708,0.4283805 2.1932617,0.3580772 2.2256704,0.2870969 2.2579927,0.2154559 2.2902241,0.1431704 2.3223606,0.0702566 2.3543977,-0.0032691 2.3863313,-0.0773904 2.4498708,-0.2273549 2.5129448,-0.3795068 2.5755194,-0.5337157 2.6375603,-0.6898516 2.6990335,-0.8477841 2.7599048,-1.0073831 2.8201401,-1.1685184 2.8797052,-1.3310597 2.9385662,-1.4948769 2.9966888,-1.6598398 3.0540389,-1.8258181 3.1105824,-1.9926816 3.1662767,-2.1602715 3.2210657,-2.3284131 3.2749031,-2.4969877 3.327743,-2.6658772 3.3795395,-2.8349638 3.4302465,-3.0041297 3.4798181,-3.1732571 3.5282084,-3.342228 3.5753713,-3.5109245 3.6212609,-3.679229 3.6658313,-3.8470234 3.7090364,-4.0141899 3.7508303,-4.1806107 3.7911671,-4.346168 3.8300008,-4.5107437 3.8672854,-4.6742202 3.9029749,-4.8364795 3.9370234,-4.9974038 3.9693849,-5.1568751 4.0000135,-5.3147756 4.014664,-5.3930994 4.028864,-5.4709924 4.0426071,-5.5484483 4.0558868,-5.6254606 4.0686967,-5.7020228 4.0810304,-5.7781286 4.0928814,-5.8537715 4.1042432,-5.9289452 4.1151095,-6.0036431 4.1254738,-6.0778588 4.1353296,-6.151586 4.1446705,-6.2248183 4.1534901,-6.2975491 4.1617819,-6.369772 4.1695395,-6.4414807 4.1767564,-6.5126687 4.1834262,-6.5833296 4.1895425,-6.653457 4.1950988,-6.7230444 4.2000887,-6.7920854 4.2045058,-6.8605737 4.2083435,-6.9285027 4.2115955,-6.995866 4.2142553,-7.0626572 4.2163165,-7.12887 4.2177726,-7.1944978 4.2186172,-7.2595343 4.2188438,-7.323973 4.2184461,-7.3878075 4.2174175,-7.4510314 4.2157517,-7.5136382 4.2134421,-7.5756218 4.2104756,-7.637 4.20684,-7.6977861 4.202528,-7.7579774 4.1975318,-7.8175709 4.191844,-7.8765638 4.1854571,-7.9349533 4.1783633,-7.9927365 4.1705553,-8.0499107 4.1620253,-8.1064729 4.152766,-8.1624204 4.1427696,-8.2177503 4.1320287,-8.2724598 4.1205357,-8.326546 4.108283,-8.3800062 4.095263,-8.4328374 4.0814683,-8.4850369 4.0668913,-8.5366018 4.0515243,-8.5875292 4.0353599,-8.6378164 4.0183905,-8.6874605 4.0006085,-8.7364587 3.9820064,-8.7848081 3.9625765,-8.832506 3.9423115,-8.8795494 3.9212036,-8.9259355 3.8992453,-8.9716615 3.8764291,-9.0167246 3.8527475,-9.0611219 3.8281927,-9.1048507 3.8027574,-9.1479079 3.776434,-9.190291 3.7492148,-9.2319969 3.7210923,-9.2730229 3.692059,-9.3133661 3.6621196,-9.3530009 3.6312911,-9.3918932 3.5995759,-9.430045 3.5669765,-9.467459 3.5334952,-9.5041375 3.4991342,-9.5400831 3.4638959,-9.5752982 3.4277827,-9.6097854 3.3907968,-9.6435472 3.3529407,-9.6765861 3.3142165,-9.7089045 3.2746268,-9.740505 3.2341737,-9.7713901 3.1928597,-9.8015622 3.150687,-9.8310239 3.107658,-9.8597777 3.0637751,-9.887826 3.0190405,-9.9151714 2.9734566,-9.9418163 2.9270256,-9.9677633 2.8797501,-9.9930148 2.8316322,-10.0175734 2.7826743,-10.0414415 2.7328788,-10.0646217 2.6822479,-10.0871164 2.630784,-10.1089282 2.5784895,-10.1300595 2.5253666,-10.1505129 2.4714106,-10.1703122 2.4166113,-10.1894891 2.3609656,-10.2080478 2.3044705,-10.2259922 2.2471231,-10.2433266 2.1889205,-10.2600548 2.1298596,-10.2761808 2.0699376,-10.2917087 2.0091514,-10.3066426 1.9474981,-10.3209863 1.8849748,-10.334744 1.8215785,-10.3479196 1.7573062,-10.3605173 1.6921549,-10.3725409 1.6261218,-10.3839945 1.5592038,-10.3948822 1.4913981,-10.4052079 1.4227016,-10.4149757 1.3531113,-10.4241895 1.2826244,-10.4328535 1.2112378,-10.4409716 1.1389487,-10.4485478 1.065754,-10.4555862 0.9916508,-10.4620907 0.9166361,-10.4680655 0.840707,-10.4735144 0.7638606,-10.4784416 0.6860937,-10.4828511 0.6074036,-10.4867468 0.5277872,-10.4901328 0.4472416,-10.4930131 0.3657639,-10.4953917 0.283351,-10.4972727 0.2,-10.49866 0.2,-10.298588 0.2,-10.298588 0.2632223,-10.297532 0.3258733,-10.2961828 0.3879533,-10.2945402 0.4494623,-10.2926038 0.5104007,-10.2903733 0.5707688,-10.2878483 0.630567,-10.2850283 0.6897956,-10.281913 0.7484551,-10.2785017 0.8065458,-10.2747938 0.8640685,-10.2707887 0.9210234,-10.2664858 0.9774113,-10.2618844 1.0332328,-10.2569837 1.0884884,-10.2517828 1.1431788,-10.2462811 1.1973048,-10.2404775 1.250867,-10.2343713 1.3038663,-10.2279614 1.3563035,-10.221247 1.4081793,-10.2142269 1.4594947,-10.2069001 1.5102505,-10.1992656 1.5604477,-10.1913222 1.6100872,-10.1830688 1.6591699,-10.1745043 1.707697,-10.1656274 1.7556694,-10.1564369 1.8030882,-10.1469316 1.8499544,-10.1371101 1.8962692,-10.1269712 1.9420338,-10.1165136 1.9872493,-10.1057359 2.0319168,-10.0946367 2.0760376,-10.0832146 2.119613,-10.0714682 2.1626441,-10.0593961 2.2051323,-10.0469968 2.2470789,-10.0342689 2.2884851,-10.0212109 2.3293524,-10.0078212 2.3696821,-9.9940985 2.4094756,-9.980041 2.4487344,-9.9656474 2.4874597,-9.950916 2.5256532,-9.9358454 2.5633163,-9.9204339 2.6004505,-9.90468 2.6370572,-9.8885821 2.6731381,-9.8721386 2.7086947,-9.855348 2.7437285,-9.8382086 2.7782411,-9.820719 2.8122342,-9.8028774 2.8457094,-9.7846823 2.8786682,-9.7661322 2.9111125,-9.7472254 2.9430438,-9.7279604 2.9744639,-9.7083356 3.0053744,-9.6883494 3.0357771,-9.6680004 3.0656737,-9.6472868 3.095066,-9.6262073 3.1239558,-9.6047602 3.1523448,-9.5829441 3.1802348,-9.5607574 3.2076277,-9.5381987 3.2345252,-9.5152665 3.2609293,-9.4919594 3.2868417,-9.4682758 3.3122644,-9.4442144 3.3371992,-9.4197738 3.361648,-9.3949526 3.3856127,-9.3697494 3.4090952,-9.3441629 3.4320976,-9.3181918 3.4546216,-9.2918348 3.4766693,-9.2650906 3.4982426,-9.2379581 3.5193436,-9.2104359 3.5399742,-9.1825229 3.5601363,-9.154218 3.5798321,-9.12552 3.5990635,-9.0964279 3.6178326,-9.0669406 3.6361415,-9.0370571 3.6539921,-9.0067764 3.6713866,-8.9760976 3.688327,-8.9450197 3.7048154,-8.913542 3.7208539,-8.8816634 3.7364447,-8.8493834 3.7662913,-8.7836157 3.7943724,-8.7162336 3.8207052,-8.6472322 3.8453069,-8.5766076 3.868195,-8.5043566 3.8893872,-8.4304768 3.9089013,-8.3549668 3.926755,-8.2778261 3.9429664,-8.199055 3.9575537,-8.1186552 3.9705352,-8.0366291 3.9819293,-7.9529805 3.9917546,-7.8677144 4.0000297,-7.7808369 4.0067737,-7.6923555 4.0120054,-7.6022791 4.0157441,-7.5106179 4.018009,-7.4173838 4.0188196,-7.32259 4.0181955,-7.2262512 4.0161565,-7.1283841 4.0127224,-7.0290067 4.0079134,-6.9281389 4.0017496,-6.8258023 3.9942514,-6.7220201 3.9854393,-6.6168172 3.9753339,-6.5102201 3.9639559,-6.402257 3.9513261,-6.2929575 3.9374654,-6.1823527 3.922395,-6.0704754 3.9061358,-5.9573598 3.8887091,-5.8430414 3.8701361,-5.7275574 3.8504382,-5.610946 3.8296368,-5.4932471 3.8077532,-5.3745018 3.7848089,-5.2547526 3.7608255,-5.134043 3.7358245,-5.012418 3.7098273,-4.8899237 3.6828556,-4.7666074 3.6549309,-4.6425176 3.6260748,-4.5177036 3.5963088,-4.392216 3.5656544,-4.2661062 3.5341331,-4.1394268 3.5017663,-4.012231 3.4685755,-3.884573 3.4345821,-3.7565078 3.3998072,-3.6280912 3.3642722,-3.4993797 3.3279982,-3.3704306 3.2910063,-3.2413015 3.2533174,-3.112051 3.2149524,-2.9827381 3.1759322,-2.8534222 3.1362773,-2.7241633 3.0960083,-2.595022 3.0551457,-2.4660589 3.0137096,-2.3373353 2.9717204,-2.2089128 2.929198,-2.0808532 2.8861623,-1.9532187 2.842633,-1.8260715 2.7986296,-1.6994743 2.7541717,-1.5734897 2.7092785,-1.4481807 2.6639689,-1.3236102 2.618262,-1.1998411 2.5721764,-1.0769366 2.5257307,-0.9549598 2.4789431,-0.8339734 2.4318319,-0.7140407 2.384415,-0.5952242 2.33671,-0.4775867 2.2887345,-0.3611907 2.2405058,-0.2460984 2.1920409,-0.1323716 2.1433567,-0.0200722 2.0944698,0.0907387 2.0453964,0.2000001 1.8138356,0.2000001 A2.7,2.7 47.7945574 0,1 -1.8138356,0.2000001 L-2.0453964,0.2000001 -2.0453964,0.2000001 -2.0944698,0.0907387 -2.1433567,-0.0200722 -2.1920409,-0.1323716 -2.2405058,-0.2460983 -2.2887345,-0.3611907 -2.33671,-0.4775867 -2.384415,-0.5952242 -2.4318319,-0.7140407 -2.4789431,-0.8339734 -2.5257307,-0.9549597 -2.5721764,-1.0769366 -2.618262,-1.1998411 -2.6639689,-1.3236102 -2.7092785,-1.4481807 -2.7541717,-1.5734897 -2.7986296,-1.6994743 -2.842633,-1.8260715 -2.8861623,-1.9532187 -2.929198,-2.0808532 -2.9717204,-2.2089128 -3.0137096,-2.3373353 -3.0551457,-2.4660589 -3.0960083,-2.595022 -3.1362773,-2.7241633 -3.1759322,-2.8534222 -3.2149524,-2.9827381 -3.2533174,-3.112051 -3.2910063,-3.2413015 -3.3279982,-3.3704305 -3.3642722,-3.4993797 -3.3998072,-3.6280912 -3.4345821,-3.7565078 -3.4685755,-3.884573 -3.5017663,-4.012231 -3.5341331,-4.1394268 -3.5656544,-4.2661062 -3.5963088,-4.392216 -3.6260748,-4.5177036 -3.6549309,-4.6425176 -3.6828556,-4.7666074 -3.7098273,-4.8899237 -3.7358245,-5.0124179 -3.7608255,-5.1340429 -3.784809,-5.2547525 -3.8077532,-5.3745018 -3.8296368,-5.4932471 -3.8504383,-5.610946 -3.8701362,-5.7275573 -3.8887091,-5.8430414 -3.9061358,-5.9573598 -3.922395,-6.0704754 -3.9374654,-6.1823527 -3.9513261,-6.2929574 -3.9639559,-6.402257 -3.9753339,-6.5102201 -3.9854394,-6.6168172 -3.9942515,-6.72202 -4.0017496,-6.8258022 -4.0079134,-6.9281389 -4.0127224,-7.0290067 -4.0161565,-7.1283841 -4.0181955,-7.2262512 -4.0188196,-7.32259 -4.018009,-7.4173838 -4.0157441,-7.5106179 -4.0120054,-7.6022791 -4.0067737,-7.6923555 -4.0000298,-7.7808368 -3.9917546,-7.8677144 -3.9819293,-7.9529805 -3.9705352,-8.0366291 -3.9575538,-8.1186552 -3.9429664,-8.199055 -3.926755,-8.2778261 -3.9089013,-8.3549668 -3.8893873,-8.4304768 -3.868195,-8.5043566 -3.8453069,-8.5766076 -3.8207052,-8.6472322 -3.7943725,-8.7162336 -3.7662914,-8.7836157 -3.7364447,-8.8493834 -3.7208539,-8.8816634 -3.7048154,-8.9135419 -3.688327,-8.9450197 -3.6713866,-8.9760976 -3.6539921,-9.0067764 -3.6361415,-9.0370571 -3.6178327,-9.0669406 -3.5990636,-9.0964279 -3.5798321,-9.12552 -3.5601363,-9.154218 -3.5399742,-9.1825229 -3.5193436,-9.2104359 -3.4982427,-9.2379581 -3.4766693,-9.2650906 -3.4546216,-9.2918348 -3.4320976,-9.3181918 -3.4090953,-9.3441629 -3.3856127,-9.3697494 -3.361648,-9.3949526 -3.3371992,-9.4197738 -3.3122644,-9.4442144 -3.2868417,-9.4682758 -3.2609293,-9.4919594 -3.2345252,-9.5152665 -3.2076277,-9.5381987 -3.1802348,-9.5607574 -3.1523448,-9.5829441 -3.1239558,-9.6047602 -3.0950661,-9.6262073 -3.0656738,-9.6472868 -3.0357771,-9.6680003 -3.0053744,-9.6883494 -2.9744639,-9.7083356 -2.9430438,-9.7279604 -2.9111125,-9.7472254 -2.8786683,-9.7661322 -2.8457094,-9.7846823 -2.8122342,-9.8028774 -2.7782411,-9.820719 -2.7437285,-9.8382086 -2.7086947,-9.855348 -2.6731381,-9.8721386 -2.6370572,-9.8885821 -2.6004505,-9.90468 -2.5633163,-9.9204339 -2.5256533,-9.9358454 -2.4874598,-9.950916 -2.4487344,-9.9656474 -2.4094756,-9.980041 -2.3696821,-9.9940984 -2.3293524,-10.0078212 -2.2884851,-10.0212109 -2.2470789,-10.0342689 -2.2051323,-10.0469968 -2.1626441,-10.0593961 -2.119613,-10.0714682 -2.0760376,-10.0832146 -2.0319168,-10.0946367 -1.9872493,-10.1057359 -1.9420338,-10.1165136 -1.8962693,-10.1269712 -1.8499544,-10.1371101 -1.8030882,-10.1469316 -1.7556694,-10.1564369 -1.707697,-10.1656274 -1.6591699,-10.1745043 -1.6100872,-10.1830688 -1.5604477,-10.1913222 -1.5102505,-10.1992656 -1.4594947,-10.2069001 -1.4081793,-10.2142269 -1.3563035,-10.221247 -1.3038663,-10.2279614 -1.250867,-10.2343713 -1.1973048,-10.2404775 -1.1431788,-10.2462811 -1.0884884,-10.2517828 -1.0332328,-10.2569837 -0.9774114,-10.2618844 -0.9210235,-10.2664858 -0.8640685,-10.2707887 -0.8065459,-10.2747938 -0.7484551,-10.2785016 -0.6897956,-10.281913 -0.630567,-10.2850283 -0.5707688,-10.2878483 -0.5104007,-10.2903733 -0.4494623,-10.2926038 -0.3879533,-10.2945402 -0.3258734,-10.2961828 -0.2632223,-10.297532 -0.2,-10.298588 -0.2,-10.49866 -0.2,-10.49866 -0.283351,-10.4972727 -0.3657639,-10.4953917 -0.4472417,-10.4930131 -0.5277873,-10.4901328 -0.6074036,-10.4867468 -0.6860938,-10.4828511 -0.7638606,-10.4784416 -0.8407071,-10.4735144 -0.9166362,-10.4680655 -0.9916508,-10.4620907 -1.065754,-10.4555862 -1.1389487,-10.4485478 -1.2112379,-10.4409716 -1.2826244,-10.4328535 -1.3531113,-10.4241895 -1.4227016,-10.4149757 -1.4913981,-10.4052079 -1.5592039,-10.3948822 -1.6261218,-10.3839945 -1.6921549,-10.3725409 -1.7573062,-10.3605173 -1.8215785,-10.3479196 -1.8849748,-10.334744 -1.9474981,-10.3209863 -2.0091514,-10.3066426 -2.0699376,-10.2917087 -2.1298596,-10.2761808 -2.1889205,-10.2600548 -2.2471231,-10.2433266 -2.3044705,-10.2259922 -2.3609656,-10.2080477 -2.4166113,-10.1894891 -2.4714107,-10.1703122 -2.5253666,-10.1505129 -2.5784895,-10.1300595 -2.630784,-10.1089282 -2.6822479,-10.0871164 -2.7328788,-10.0646217 -2.7826743,-10.0414415 -2.8316322,-10.0175734 -2.8797501,-9.9930148 -2.9270257,-9.9677633 -2.9734566,-9.9418163 -3.0190405,-9.9151714 -3.0637751,-9.887826 -3.1076581,-9.8597777 -3.150687,-9.8310239 -3.1928597,-9.8015622 -3.2341737,-9.7713901 -3.2746268,-9.740505 -3.3142166,-9.7089045 -3.3529407,-9.6765861 -3.3907968,-9.6435472 -3.4277827,-9.6097854 -3.4638959,-9.5752982 -3.4991342,-9.540083 -3.5334952,-9.5041375 -3.5669765,-9.467459 -3.5995759,-9.430045 -3.6312911,-9.3918932 -3.6621196,-9.3530009 -3.692059,-9.3133661 -3.7210923,-9.2730228 -3.7492148,-9.2319969 -3.776434,-9.190291 -3.8027574,-9.1479079 -3.8281928,-9.1048506 -3.8527475,-9.0611219 -3.8764292,-9.0167246 -3.8992453,-8.9716615 -3.9212036,-8.9259355 -3.9423115,-8.8795493 -3.9625766,-8.832506 -3.9820064,-8.7848081 -4.0006085,-8.7364587 -4.0183905,-8.6874605 -4.03536,-8.6378164 -4.0515244,-8.5875292 -4.0668913,-8.5366018 -4.0814684,-8.4850369 -4.0952631,-8.4328374 -4.108283,-8.3800062 -4.1205357,-8.326546 -4.1320287,-8.2724598 -4.1427696,-8.2177503 -4.152766,-8.1624204 -4.1620253,-8.1064729 -4.1705553,-8.0499107 -4.1783633,-7.9927365 -4.1854571,-7.9349532 -4.1918441,-7.8765638 -4.1975318,-7.8175709 -4.202528,-7.7579774 -4.20684,-7.6977861 -4.2104756,-7.637 -4.2134421,-7.5756218 -4.2157517,-7.5136382 -4.2174176,-7.4510314 -4.2184461,-7.3878075 -4.2188438,-7.323973 -4.2186172,-7.2595343 -4.2177726,-7.1944978 -4.2163165,-7.12887 -4.2142553,-7.0626572 -4.2115955,-6.995866 -4.2083435,-6.9285026 -4.2045058,-6.8605737 -4.2000887,-6.7920854 -4.1950989,-6.7230444 -4.1895425,-6.653457 -4.1834263,-6.5833296 -4.1767564,-6.5126687 -4.1695395,-6.4414807 -4.1617819,-6.369772 -4.1534901,-6.297549 -4.1446705,-6.2248182 -4.1353296,-6.151586 -4.1254738,-6.0778588 -4.1151095,-6.0036431 -4.1042433,-5.9289451 -4.0928814,-5.8537715 -4.0810304,-5.7781286 -4.0686968,-5.7020228 -4.0558868,-5.6254606 -4.0426071,-5.5484483 -4.028864,-5.4709924 -4.014664,-5.3930994 -4.0000135,-5.3147756 -3.9693849,-5.1568751 -3.9370234,-4.9974037 -3.9029749,-4.8364795 -3.8672854,-4.6742202 -3.8300008,-4.5107437 -3.7911671,-4.346168 -3.7508304,-4.1806107 -3.7090364,-4.0141899 -3.6658313,-3.8470234 -3.6212609,-3.679229 -3.5753713,-3.5109245 -3.5282084,-3.3422279 -3.4798181,-3.1732571 -3.4302465,-3.0041297 -3.3795395,-2.8349638 -3.327743,-2.6658772 -3.2749031,-2.4969877 -3.2210657,-2.3284131 -3.1662767,-2.1602715 -3.1105824,-1.9926816 -3.0540389,-1.8258181 -2.9966888,-1.6598398 -2.9385662,-1.4948769 -2.8797052,-1.3310597 -2.8201401,-1.1685184 -2.7599048,-1.0073831 -2.6990335,-0.8477841 -2.6375603,-0.6898515 -2.5755194,-0.5337157 -2.5129448,-0.3795067 -2.4498708,-0.2273549 -2.3863313,-0.0773904 -2.3543977,-0.003269 -2.3223606,0.0702566 -2.2902241,0.1431704 -2.2579927,0.2154559 -2.2256704,0.2870969 -2.1932617,0.3580772 -2.1607708,0.4283805 -2.1282019,0.4979904 -2.0955593,0.5668908 -2.0628472,0.6350652 -2.03007,0.7024976 -1.9972319,0.7691715 -1.9643371,0.8350707 -1.93139,0.900179 -1.8983948,0.96448 -1.8653557,1.0279575 -1.8322787,1.0905951 -1.799171,1.1523792 -1.7660318,1.2132985 -1.7328598,1.273342 -1.6996537,1.3324986 -1.6664122,1.3907572 -1.633134,1.4481069 -1.5998178,1.5045364 -1.5664624,1.5600349 -1.5330665,1.6145912 -1.4996287,1.6681942 -1.4661477,1.7208329 -1.4326224,1.7724963 -1.3990513,1.8231733 -1.3654333,1.8728528 -1.3317669,1.9215238 -1.298051,1.9691752 -1.2642842,2.0157959 -1.2304652,2.0613749 -1.1965928,2.1059012 -1.1626656,2.1493637 -1.1286824,2.1917512 -1.0946419,2.2330528 -1.0605428,2.2732575 -1.0263838,2.3123541 -0.9921635,2.3503315 -0.9578808,2.3871788 -0.9235176,2.4229092 -0.8890492,2.4575303 -0.8544647,2.4910217 -0.8197535,2.5233633 -0.7849047,2.5545345 -0.7499075,2.584515 -0.7147513,2.6132845 -0.6794251,2.6408227 -0.6439183,2.6671091 -0.6082201,2.6921235 -0.5723197,2.7158454 -0.5362062,2.7382546 -0.499869,2.7593306 -0.4632973,2.7790532 -0.4264802,2.7974019 -0.389407,2.8143564 -0.352067,2.8298964 -0.3144493,2.8440015 -0.2765471,2.8566364 -0.2383849,2.8677231 -0.2,2.8772277 -0.2,2.6708217 -0.2,2.6708217 -0.2268735,2.6625586 -0.2538112,2.6532719 -0.2808126,2.6429639 -0.3078772,2.6316372 -0.3350043,2.6192945 -0.3621933,2.605939 -0.3894436,2.5915738 -0.4167544,2.5762025 -0.4441249,2.5598286 -0.4715542,2.5424563 -0.4990415,2.5240895 -0.5265858,2.5047325 -0.5541861,2.4843901 -0.5818415,2.4630668 -0.6095508,2.4407677 -0.6373129,2.4174979 -0.6651266,2.3932628 -0.6929907,2.3680678 -0.7209039,2.3419187 -0.748865,2.3148213 -0.7768726,2.2867818 -0.8049253,2.2578065 -0.8330217,2.2279016 -0.8611602,2.1970739 -0.8893393,2.16533 -0.9175576,2.1326769 -0.9458133,2.0991217 -0.9741049,2.0646716 -1.0024306,2.029334 -1.0307888,1.9931164 -1.0591775,1.9560265 -1.0875952,1.9180722 -1.1160398,1.8792614 -1.1445095,1.8396022 -1.1730025,1.7991029 -1.2015166,1.757772 -1.23005,1.7156178 -1.2586006,1.672649 -1.2871662,1.6288745 -1.3157449,1.5843031 -1.3443344,1.5389438 -1.3729326,1.4928058 -1.4015373,1.4458983 -1.4301461,1.3982307 -1.4587569,1.3498125 -1.4873672,1.3006531 -1.5159747,1.2507623 -1.5445771,1.2001499 -1.5731719,1.1488258 -1.6017566,1.0967999 -1.6303288,1.0440823 -1.658886,0.9906831 -1.6874255,0.9366126 -1.7159448,0.8818811 -1.7444412,0.826499 -1.7729122,0.7704768 -1.8013551,0.7138251 -1.8297671,0.6565544 -1.8864875,0.5401993 -1.9430512,0.4214978 -1.9994354,0.3005375z" transform="matrix(1,0,0,-1,5.0194016,3.7)" fill="rgb(255,255,255)" stroke="rgb(0,0,0)" stroke-width="0.0010cm" stroke-linecap="round" stroke-linejoin="round" /><path d="M-2,-5.7 a2,2 0 1,1 4.0000001,0 a2,2 0 1,1 -4.0000001,0z" transform="matrix(1,0,0,-1,5.0194016,3.7)" fill="rgb(255,255,255)" stroke="rgb(0,0,0)" stroke-width="0.0010cm" stroke-linecap="round" stroke-linejoin="round" /><path d="M-1.7,-1.8 a1.7,1.7 0 1,1 3.4000001,0 a1.7,1.7 0 1,1 -3.4000001,0z" transform="matrix(1,0,0,-1,5.0194016,3.7)" fill="rgb(255,255,255)" stroke="rgb(0,0,0)" stroke-width="0.0010cm" stroke-linecap="round" stroke-linejoin="round" /></svg>