M48
; DRILL file {KiCad 8.0.8} date 2025-02-10T09:28:58-0800
; FORMAT={-:-/ absolute / inch / decimal}
; #@! TF.CreationDate,2025-02-10T09:28:58-08:00
; #@! TF.GenerationSoftware,Kicad,Pcbnew,8.0.8
; #@! TF.FileFunction,Plated,1,2,PTH
FMAT,2
INCH
; #@! TA.AperFunction,Plated,PTH,ComponentDrill
T1C0.0394
%
G90
G05
T1
X5.977Y-3.953
X6.077Y-3.953
X6.0965Y-1.5039
X6.0965Y-1.6039
X6.0965Y-1.7039
X6.0965Y-1.8039
X6.0965Y-1.9039
X6.0965Y-2.0039
X6.0965Y-2.1039
X6.1024Y-2.6569
X6.1024Y-2.7569
X6.1024Y-2.8569
X6.1024Y-2.9569
X6.1024Y-3.0569
X6.1024Y-3.1569
X6.1024Y-3.2569
X6.177Y-3.953
X6.1772Y-4.553
X6.277Y-3.953
X6.2772Y-4.553
X6.278Y-4.8819
X6.377Y-3.953
X6.3772Y-4.553
X6.378Y-4.8819
X6.477Y-3.953
X6.4772Y-4.553
X6.478Y-4.8819
X6.577Y-3.953
X6.5772Y-4.553
X6.578Y-4.8819
X6.677Y-3.953
X6.6772Y-4.553
X6.7657Y-1.5041
X6.7657Y-1.6041
X6.7657Y-1.7041
X6.7657Y-1.8041
X6.7657Y-1.9041
X6.7657Y-2.0041
X6.7657Y-2.1041
X6.7717Y-2.6569
X6.7717Y-2.7569
X6.7717Y-2.8569
X6.7717Y-2.9569
X6.7717Y-3.0569
X6.7717Y-3.1569
X6.7717Y-3.2569
X6.777Y-3.953
X6.877Y-3.953
M30
