%TF.GenerationSoftware,KiCad,Pcbnew,8.0.8*%
%TF.CreationDate,2025-02-10T09:30:07-08:00*%
%TF.ProjectId,pLUFsPCB,704c5546-7350-4434-922e-6b696361645f,1*%
%TF.SameCoordinates,Original*%
%TF.FileFunction,Copper,L2,Bot*%
%TF.FilePolarity,Positive*%
%FSLAX46Y46*%
G04 Gerber Fmt 4.6, Leading zero omitted, Abs format (unit mm)*
G04 Created by KiCad (PCBNEW 8.0.8) date 2025-02-10 09:30:07*
%MOMM*%
%LPD*%
G01*
G04 APERTURE LIST*
%TA.AperFunction,ComponentPad*%
%ADD10R,1.700000X1.700000*%
%TD*%
%TA.AperFunction,ComponentPad*%
%ADD11O,1.700000X1.700000*%
%TD*%
G04 APERTURE END LIST*
D10*
%TO.P,J1,1,Pin_1*%
%TO.N,Net-(J1-Pin_1)*%
X172000000Y-82725000D03*
D11*
%TO.P,J1,2,Pin_2*%
%TO.N,Net-(J1-Pin_2)*%
X172000000Y-80185000D03*
%TO.P,J1,3,Pin_3*%
%TO.N,Net-(D1-A)*%
X172000000Y-77645000D03*
%TO.P,J1,4,Pin_4*%
%TO.N,Net-(J1-Pin_4)*%
X172000000Y-75105000D03*
%TO.P,J1,5,Pin_5*%
%TO.N,Net-(J1-Pin_5)*%
X172000000Y-72565000D03*
%TO.P,J1,6,Pin_6*%
%TO.N,Net-(J1-Pin_6)*%
X172000000Y-70025000D03*
%TO.P,J1,7,Pin_7*%
%TO.N,Net-(J1-Pin_7)*%
X172000000Y-67485000D03*
%TD*%
D10*
%TO.P,J6,1,Pin_1*%
%TO.N,Net-(J1-Pin_1)*%
X171850000Y-38205000D03*
D11*
%TO.P,J6,2,Pin_2*%
%TO.N,Net-(J1-Pin_2)*%
X171850000Y-40745000D03*
%TO.P,J6,3,Pin_3*%
%TO.N,Net-(D1-A)*%
X171850000Y-43285000D03*
%TO.P,J6,4,Pin_4*%
%TO.N,Net-(J1-Pin_4)*%
X171850000Y-45825000D03*
%TO.P,J6,5,Pin_5*%
%TO.N,Net-(J1-Pin_5)*%
X171850000Y-48365000D03*
%TO.P,J6,6,Pin_6*%
%TO.N,Net-(J1-Pin_6)*%
X171850000Y-50905000D03*
%TO.P,J6,7,Pin_7*%
%TO.N,Net-(J1-Pin_7)*%
X171850000Y-53445000D03*
%TD*%
D10*
%TO.P,J3,1,Pin_1*%
%TO.N,Net-(J3-Pin_1)*%
X169600000Y-115645000D03*
D11*
%TO.P,J3,2,Pin_2*%
%TO.N,Net-(J3-Pin_2)*%
X167060000Y-115645000D03*
%TO.P,J3,3,Pin_3*%
%TO.N,unconnected-(J3-Pin_3-Pad3)*%
X164520000Y-115645000D03*
%TO.P,J3,4,Pin_4*%
%TO.N,unconnected-(J3-Pin_4-Pad4)*%
X161980000Y-115645000D03*
%TO.P,J3,5,Pin_5*%
%TO.N,Net-(J3-Pin_5)*%
X159440000Y-115645000D03*
%TO.P,J3,6,Pin_6*%
%TO.N,Net-(J3-Pin_6)*%
X156900000Y-115645000D03*
%TD*%
D10*
%TO.P,J5,1,Pin_1*%
%TO.N,Net-(J2-Pin_1)*%
X154850000Y-38200000D03*
D11*
%TO.P,J5,2,Pin_2*%
%TO.N,Net-(J2-Pin_2)*%
X154850000Y-40740000D03*
%TO.P,J5,3,Pin_3*%
%TO.N,Net-(J2-Pin_3)*%
X154850000Y-43280000D03*
%TO.P,J5,4,Pin_4*%
%TO.N,Net-(J2-Pin_4)*%
X154850000Y-45820000D03*
%TO.P,J5,5,Pin_5*%
%TO.N,Net-(J2-Pin_5)*%
X154850000Y-48360000D03*
%TO.P,J5,6,Pin_6*%
%TO.N,Net-(J2-Pin_6)*%
X154850000Y-50900000D03*
%TO.P,J5,7,Pin_7*%
%TO.N,Net-(J2-Pin_7)*%
X154850000Y-53440000D03*
%TD*%
D10*
%TO.P,J7,1,Pin_1*%
%TO.N,Net-(J3-Pin_1)*%
X167080000Y-124000000D03*
D11*
%TO.P,J7,2,Pin_2*%
%TO.N,Net-(J3-Pin_2)*%
X164540000Y-124000000D03*
%TO.P,J7,3,Pin_3*%
%TO.N,Net-(J3-Pin_5)*%
X162000000Y-124000000D03*
%TO.P,J7,4,Pin_4*%
%TO.N,Net-(J3-Pin_6)*%
X159460000Y-124000000D03*
%TD*%
D10*
%TO.P,J4,1,Pin_1*%
%TO.N,Net-(J1-Pin_1)*%
X174675000Y-100405000D03*
D11*
%TO.P,J4,2,Pin_2*%
X172135000Y-100405000D03*
%TO.P,J4,3,Pin_3*%
%TO.N,Net-(J1-Pin_2)*%
X169595000Y-100405000D03*
%TO.P,J4,4,Pin_4*%
%TO.N,Net-(J1-Pin_1)*%
X167055000Y-100405000D03*
%TO.P,J4,5,Pin_5*%
%TO.N,Net-(J2-Pin_4)*%
X164515000Y-100405000D03*
%TO.P,J4,6,Pin_6*%
%TO.N,Net-(J2-Pin_3)*%
X161975000Y-100405000D03*
%TO.P,J4,7,Pin_7*%
%TO.N,Net-(J1-Pin_2)*%
X159435000Y-100405000D03*
%TO.P,J4,8,Pin_8*%
%TO.N,Net-(J2-Pin_2)*%
X156895000Y-100405000D03*
%TO.P,J4,9,Pin_9*%
%TO.N,Net-(J2-Pin_1)*%
X154355000Y-100405000D03*
%TO.P,J4,10,Pin_10*%
%TO.N,Net-(J1-Pin_1)*%
X151815000Y-100405000D03*
%TD*%
D10*
%TO.P,J2,1,Pin_1*%
%TO.N,Net-(J2-Pin_1)*%
X155000000Y-82725000D03*
D11*
%TO.P,J2,2,Pin_2*%
%TO.N,Net-(J2-Pin_2)*%
X155000000Y-80185000D03*
%TO.P,J2,3,Pin_3*%
%TO.N,Net-(J2-Pin_3)*%
X155000000Y-77645000D03*
%TO.P,J2,4,Pin_4*%
%TO.N,Net-(J2-Pin_4)*%
X155000000Y-75105000D03*
%TO.P,J2,5,Pin_5*%
%TO.N,Net-(J2-Pin_5)*%
X155000000Y-72565000D03*
%TO.P,J2,6,Pin_6*%
%TO.N,Net-(J2-Pin_6)*%
X155000000Y-70025000D03*
%TO.P,J2,7,Pin_7*%
%TO.N,Net-(J2-Pin_7)*%
X155000000Y-67485000D03*
%TD*%
M02*
