%TF.GenerationSoftware,KiCad,Pcbnew,8.0.8*%
%TF.CreationDate,2025-02-10T09:30:08-08:00*%
%TF.ProjectId,pLUFsPCB,704c5546-7350-4434-922e-6b696361645f,1*%
%TF.SameCoordinates,Original*%
%TF.FileFunction,Soldermask,Bot*%
%TF.FilePolarity,Negative*%
%FSLAX46Y46*%
G04 Gerber Fmt 4.6, Leading zero omitted, Abs format (unit mm)*
G04 Created by KiCad (PCBNEW 8.0.8) date 2025-02-10 09:30:08*
%MOMM*%
%LPD*%
G01*
G04 APERTURE LIST*
%ADD10R,1.700000X1.700000*%
%ADD11O,1.700000X1.700000*%
G04 APERTURE END LIST*
D10*
%TO.C,J1*%
X172000000Y-82725000D03*
D11*
X172000000Y-80185000D03*
X172000000Y-77645000D03*
X172000000Y-75105000D03*
X172000000Y-72565000D03*
X172000000Y-70025000D03*
X172000000Y-67485000D03*
%TD*%
D10*
%TO.C,J6*%
X171850000Y-38205000D03*
D11*
X171850000Y-40745000D03*
X171850000Y-43285000D03*
X171850000Y-45825000D03*
X171850000Y-48365000D03*
X171850000Y-50905000D03*
X171850000Y-53445000D03*
%TD*%
D10*
%TO.C,J3*%
X169600000Y-115645000D03*
D11*
X167060000Y-115645000D03*
X164520000Y-115645000D03*
X161980000Y-115645000D03*
X159440000Y-115645000D03*
X156900000Y-115645000D03*
%TD*%
D10*
%TO.C,J5*%
X154850000Y-38200000D03*
D11*
X154850000Y-40740000D03*
X154850000Y-43280000D03*
X154850000Y-45820000D03*
X154850000Y-48360000D03*
X154850000Y-50900000D03*
X154850000Y-53440000D03*
%TD*%
D10*
%TO.C,J7*%
X167080000Y-124000000D03*
D11*
X164540000Y-124000000D03*
X162000000Y-124000000D03*
X159460000Y-124000000D03*
%TD*%
D10*
%TO.C,J4*%
X174675000Y-100405000D03*
D11*
X172135000Y-100405000D03*
X169595000Y-100405000D03*
X167055000Y-100405000D03*
X164515000Y-100405000D03*
X161975000Y-100405000D03*
X159435000Y-100405000D03*
X156895000Y-100405000D03*
X154355000Y-100405000D03*
X151815000Y-100405000D03*
%TD*%
D10*
%TO.C,J2*%
X155000000Y-82725000D03*
D11*
X155000000Y-80185000D03*
X155000000Y-77645000D03*
X155000000Y-75105000D03*
X155000000Y-72565000D03*
X155000000Y-70025000D03*
X155000000Y-67485000D03*
%TD*%
M02*
