%TF.GenerationSoftware,KiCad,Pcbnew,8.0.8*%
%TF.CreationDate,2025-02-26T13:49:19-08:00*%
%TF.ProjectId,pLUFsPCB,704c5546-7350-4434-922e-6b696361645f,1*%
%TF.SameCoordinates,Original*%
%TF.FileFunction,Copper,L1,Top*%
%TF.FilePolarity,Positive*%
%FSLAX46Y46*%
G04 Gerber Fmt 4.6, Leading zero omitted, Abs format (unit mm)*
G04 Created by KiCad (PCBNEW 8.0.8) date 2025-02-26 13:49:19*
%MOMM*%
%LPD*%
G01*
G04 APERTURE LIST*
G04 Aperture macros list*
%AMRoundRect*
0 Rectangle with rounded corners*
0 $1 Rounding radius*
0 $2 $3 $4 $5 $6 $7 $8 $9 X,Y pos of 4 corners*
0 Add a 4 corners polygon primitive as box body*
4,1,4,$2,$3,$4,$5,$6,$7,$8,$9,$2,$3,0*
0 Add four circle primitives for the rounded corners*
1,1,$1+$1,$2,$3*
1,1,$1+$1,$4,$5*
1,1,$1+$1,$6,$7*
1,1,$1+$1,$8,$9*
0 Add four rect primitives between the rounded corners*
20,1,$1+$1,$2,$3,$4,$5,0*
20,1,$1+$1,$4,$5,$6,$7,0*
20,1,$1+$1,$6,$7,$8,$9,0*
20,1,$1+$1,$8,$9,$2,$3,0*%
G04 Aperture macros list end*
%TA.AperFunction,SMDPad,CuDef*%
%ADD10RoundRect,0.250000X0.450000X-0.262500X0.450000X0.262500X-0.450000X0.262500X-0.450000X-0.262500X0*%
%TD*%
%TA.AperFunction,SMDPad,CuDef*%
%ADD11R,1.200000X2.500000*%
%TD*%
%TA.AperFunction,SMDPad,CuDef*%
%ADD12RoundRect,0.250000X-0.475000X0.250000X-0.475000X-0.250000X0.475000X-0.250000X0.475000X0.250000X0*%
%TD*%
%TA.AperFunction,SMDPad,CuDef*%
%ADD13RoundRect,0.250000X-0.262500X-0.450000X0.262500X-0.450000X0.262500X0.450000X-0.262500X0.450000X0*%
%TD*%
%TA.AperFunction,ComponentPad*%
%ADD14C,1.700000*%
%TD*%
%TA.AperFunction,SMDPad,CuDef*%
%ADD15RoundRect,0.218750X-0.218750X-0.256250X0.218750X-0.256250X0.218750X0.256250X-0.218750X0.256250X0*%
%TD*%
%TA.AperFunction,SMDPad,CuDef*%
%ADD16RoundRect,0.500000X-1.000000X-0.500000X1.000000X-0.500000X1.000000X0.500000X-1.000000X0.500000X0*%
%TD*%
%TA.AperFunction,HeatsinkPad*%
%ADD17RoundRect,0.250000X-1.500000X-1.500000X1.500000X-1.500000X1.500000X1.500000X-1.500000X1.500000X0*%
%TD*%
%TA.AperFunction,SMDPad,CuDef*%
%ADD18RoundRect,0.250000X-0.900000X-0.400000X0.900000X-0.400000X0.900000X0.400000X-0.900000X0.400000X0*%
%TD*%
%TA.AperFunction,SMDPad,CuDef*%
%ADD19C,1.300000*%
%TD*%
%TA.AperFunction,SMDPad,CuDef*%
%ADD20RoundRect,0.250000X-0.250000X-0.475000X0.250000X-0.475000X0.250000X0.475000X-0.250000X0.475000X0*%
%TD*%
%TA.AperFunction,SMDPad,CuDef*%
%ADD21RoundRect,0.250000X0.262500X0.450000X-0.262500X0.450000X-0.262500X-0.450000X0.262500X-0.450000X0*%
%TD*%
%TA.AperFunction,ComponentPad*%
%ADD22R,1.700000X1.700000*%
%TD*%
%TA.AperFunction,ComponentPad*%
%ADD23O,1.700000X1.700000*%
%TD*%
%TA.AperFunction,Conductor*%
%ADD24C,0.200000*%
%TD*%
G04 APERTURE END LIST*
D10*
%TO.P,R3,2*%
%TO.N,Net-(J2-Pin_6)*%
X102616000Y-75287500D03*
%TO.P,R3,1*%
%TO.N,Net-(J1-Pin_2)*%
X102616000Y-77112500D03*
%TD*%
D11*
%TO.P,SW1,1,1*%
%TO.N,Net-(U1-CHIP_EN)*%
X24638000Y-77062000D03*
%TO.P,SW1,2,2*%
%TO.N,Net-(J2-Pin_6)*%
X24638000Y-89562000D03*
%TO.P,SW1,3,3*%
%TO.N,Net-(U1-CHIP_EN)*%
X32258000Y-77062000D03*
%TO.P,SW1,4,4*%
%TO.N,Net-(J2-Pin_6)*%
X32258000Y-89562000D03*
%TD*%
D12*
%TO.P,C2,1*%
%TO.N,Net-(J2-Pin_5)*%
X115062000Y-90170000D03*
%TO.P,C2,2*%
%TO.N,Net-(J2-Pin_6)*%
X115062000Y-92070000D03*
%TD*%
D13*
%TO.P,R4,1*%
%TO.N,Net-(J2-Pin_6)*%
X111459000Y-105410000D03*
%TO.P,R4,2*%
%TO.N,Net-(J1-Pin_1)*%
X113284000Y-105410000D03*
%TD*%
D14*
%TO.P,M1,4*%
%TO.N,Net-(J1-Pin_1)*%
X101045000Y-126290000D03*
%TO.P,M1,3*%
%TO.N,Net-(J1-Pin_2)*%
X101045000Y-133910000D03*
%TO.P,M1,2,-*%
%TO.N,Net-(J2-Pin_6)*%
X123905000Y-133910000D03*
%TO.P,M1,1*%
%TO.N,Net-(J2-Pin_5)*%
X123905000Y-126290000D03*
%TD*%
D15*
%TO.P,D1,2,A*%
%TO.N,Net-(D1-A)*%
X113563500Y-71374000D03*
%TO.P,D1,1,K*%
%TO.N,Net-(D1-K)*%
X111988500Y-71374000D03*
%TD*%
D12*
%TO.P,C3,1*%
%TO.N,Net-(J2-Pin_5)*%
X120142000Y-90170000D03*
%TO.P,C3,2*%
%TO.N,Net-(J2-Pin_6)*%
X120142000Y-92070000D03*
%TD*%
D13*
%TO.P,R1,1*%
%TO.N,Net-(J2-Pin_5)*%
X43791500Y-63908000D03*
%TO.P,R1,2*%
%TO.N,Net-(U1-CHIP_EN)*%
X45616500Y-63908000D03*
%TD*%
D16*
%TO.P,U1,1,GPIO2_A0_D0*%
%TO.N,Net-(J1-Pin_1)*%
X104025000Y-50505000D03*
%TO.P,U1,2,GPIO3_A1_D1*%
%TO.N,Net-(J1-Pin_2)*%
X104025000Y-53045000D03*
%TO.P,U1,3,GPIO4_A2_D2*%
%TO.N,Net-(J1-Pin_3)*%
X104025000Y-55585000D03*
%TO.P,U1,4,GPIO5_A3_D3*%
%TO.N,Net-(J1-Pin_4)*%
X104025000Y-58125000D03*
%TO.P,U1,5,GPIO6_D4_SDA*%
%TO.N,Net-(J1-Pin_5)*%
X104025000Y-60665000D03*
%TO.P,U1,6,GPIO7_D5_SCL*%
%TO.N,Net-(J1-Pin_6)*%
X104025000Y-63205000D03*
%TO.P,U1,7,GPIO21_D6_TX*%
%TO.N,Net-(J1-Pin_7)*%
X104025000Y-65745000D03*
%TO.P,U1,8,GPIO20_D7_RX*%
%TO.N,Net-(D1-A)*%
X121025000Y-65745000D03*
%TO.P,U1,9,GPIO8_D8_SCK*%
%TO.N,Net-(J2-Pin_2)*%
X121025000Y-63205000D03*
%TO.P,U1,10,GPIO9_D9_MISO*%
%TO.N,Net-(J2-Pin_3)*%
X121025000Y-60665000D03*
%TO.P,U1,11,GPIO10_D10_MOSI*%
%TO.N,Net-(J2-Pin_4)*%
X121025000Y-58125000D03*
%TO.P,U1,12,3V3*%
%TO.N,Net-(J2-Pin_5)*%
X121025000Y-55585000D03*
%TO.P,U1,13,GND*%
%TO.N,Net-(J2-Pin_6)*%
X121025000Y-53045000D03*
%TO.P,U1,14,5V*%
%TO.N,Net-(J2-Pin_7)*%
X121025000Y-50505000D03*
D17*
%TO.P,U1,15,BAT*%
%TO.N,unconnected-(U1-BAT-Pad15)*%
X114625000Y-58725000D03*
D18*
%TO.P,U1,16,GND*%
%TO.N,unconnected-(U1-GND-Pad16)*%
X108025000Y-57725000D03*
%TO.P,U1,17,MTDI*%
%TO.N,unconnected-(U1-MTDI-Pad17)*%
X108025000Y-55825000D03*
D19*
%TO.P,U1,18,MTDO*%
%TO.N,unconnected-(U1-MTDO-Pad18)*%
X111255000Y-49505000D03*
%TO.P,U1,19,CHIP_EN*%
%TO.N,Net-(U1-CHIP_EN)*%
X111255000Y-52085000D03*
%TO.P,U1,20,GND*%
%TO.N,unconnected-(U1-GND-Pad20)*%
X111255000Y-54625000D03*
%TO.P,U1,21,MTMS*%
%TO.N,unconnected-(U1-MTMS-Pad21)*%
X113795000Y-54625000D03*
%TO.P,U1,22,MTCK*%
%TO.N,unconnected-(U1-MTCK-Pad22)*%
X113795000Y-52085000D03*
%TO.P,U1,23*%
%TO.N,N/C*%
X113795000Y-49505000D03*
%TD*%
D20*
%TO.P,C1,1*%
%TO.N,Net-(J2-Pin_6)*%
X32526000Y-122584000D03*
%TO.P,C1,2*%
%TO.N,Net-(U1-CHIP_EN)*%
X34426000Y-122584000D03*
%TD*%
D21*
%TO.P,R2,2*%
%TO.N,Net-(J2-Pin_6)*%
X107291500Y-71374000D03*
%TO.P,R2,1*%
%TO.N,Net-(D1-K)*%
X109116500Y-71374000D03*
%TD*%
D22*
%TO.P,J1,1,Pin_1*%
%TO.N,Net-(J1-Pin_1)*%
X117370000Y-100086000D03*
D23*
%TO.P,J1,2,Pin_2*%
%TO.N,Net-(J1-Pin_2)*%
X119910000Y-100086000D03*
%TO.P,J1,3,Pin_3*%
%TO.N,Net-(J1-Pin_3)*%
X122450000Y-100086000D03*
%TO.P,J1,4,Pin_4*%
%TO.N,Net-(J1-Pin_4)*%
X124990000Y-100086000D03*
%TO.P,J1,5,Pin_5*%
%TO.N,Net-(J1-Pin_5)*%
X127530000Y-100086000D03*
%TO.P,J1,6,Pin_6*%
%TO.N,Net-(J1-Pin_6)*%
X130070000Y-100086000D03*
%TO.P,J1,7,Pin_7*%
%TO.N,Net-(J1-Pin_7)*%
X132610000Y-100086000D03*
%TD*%
D22*
%TO.P,J2,1,Pin_1*%
%TO.N,Net-(D1-A)*%
X117370000Y-84836000D03*
D23*
%TO.P,J2,2,Pin_2*%
%TO.N,Net-(J2-Pin_2)*%
X119910000Y-84836000D03*
%TO.P,J2,3,Pin_3*%
%TO.N,Net-(J2-Pin_3)*%
X122450000Y-84836000D03*
%TO.P,J2,4,Pin_4*%
%TO.N,Net-(J2-Pin_4)*%
X124990000Y-84836000D03*
%TO.P,J2,5,Pin_5*%
%TO.N,Net-(J2-Pin_5)*%
X127530000Y-84836000D03*
%TO.P,J2,6,Pin_6*%
%TO.N,Net-(J2-Pin_6)*%
X130070000Y-84836000D03*
%TO.P,J2,7,Pin_7*%
%TO.N,Net-(J2-Pin_7)*%
X132610000Y-84836000D03*
%TD*%
D24*
%TO.N,Net-(J2-Pin_5)*%
X120142000Y-90170000D02*
X120142000Y-88392000D01*
X120142000Y-88392000D02*
X123713000Y-88392000D01*
X115062000Y-88392000D02*
X120142000Y-88392000D01*
%TO.N,Net-(J2-Pin_6)*%
X120142000Y-92070000D02*
X120142000Y-93980000D01*
X120142000Y-93980000D02*
X115062000Y-93980000D01*
X122682000Y-93980000D02*
X120142000Y-93980000D01*
X115062000Y-92070000D02*
X115062000Y-93980000D01*
X115062000Y-93980000D02*
X110490000Y-93980000D01*
%TO.N,Net-(J2-Pin_5)*%
X115062000Y-90170000D02*
X115062000Y-88392000D01*
X112522000Y-88392000D02*
X115062000Y-88392000D01*
%TO.N,Net-(J2-Pin_6)*%
X107188000Y-97282000D02*
X107188000Y-105410000D01*
X110490000Y-93980000D02*
X107188000Y-97282000D01*
X130070000Y-84575000D02*
X122682000Y-91963000D01*
X130070000Y-65300000D02*
X130070000Y-84575000D01*
X130048000Y-65278000D02*
X130070000Y-65300000D01*
X130048000Y-60568000D02*
X130048000Y-65278000D01*
X122682000Y-91963000D02*
X122682000Y-93980000D01*
X122525000Y-53045000D02*
X130048000Y-60568000D01*
X121025000Y-53045000D02*
X122525000Y-53045000D01*
X111459000Y-105410000D02*
X107188000Y-105410000D01*
X107188000Y-107188000D02*
X107188000Y-105410000D01*
%TO.N,Net-(J1-Pin_1)*%
X113284000Y-105410000D02*
X117370000Y-105410000D01*
X117370000Y-105410000D02*
X117370000Y-100086000D01*
X117370000Y-114576000D02*
X117370000Y-105410000D01*
%TO.N,Net-(J1-Pin_2)*%
X99842919Y-133910000D02*
X101045000Y-133910000D01*
X96012000Y-129032000D02*
X96012000Y-130079081D01*
X96012000Y-130079081D02*
X99842919Y-133910000D01*
X102616000Y-122428000D02*
X96012000Y-129032000D01*
X102616000Y-77112500D02*
X102616000Y-122428000D01*
%TO.N,Net-(J2-Pin_6)*%
X104140000Y-69342000D02*
X108204000Y-69342000D01*
X107950000Y-69342000D02*
X108204000Y-69342000D01*
X102616000Y-70866000D02*
X104140000Y-69342000D01*
X102616000Y-75287500D02*
X102616000Y-70866000D01*
X108204000Y-69342000D02*
X117602000Y-69342000D01*
%TO.N,Net-(J1-Pin_2)*%
X129286000Y-132080000D02*
X129286000Y-109462000D01*
X125222000Y-136144000D02*
X129286000Y-132080000D01*
X103279000Y-136144000D02*
X125222000Y-136144000D01*
X129286000Y-109462000D02*
X119910000Y-100086000D01*
X101045000Y-133910000D02*
X103279000Y-136144000D01*
%TO.N,Net-(J1-Pin_1)*%
X124714000Y-135382000D02*
X128524000Y-131572000D01*
X113844000Y-126290000D02*
X122936000Y-135382000D01*
X122936000Y-135382000D02*
X124714000Y-135382000D01*
X128524000Y-131572000D02*
X128524000Y-125730000D01*
X101045000Y-126290000D02*
X113844000Y-126290000D01*
X128524000Y-125730000D02*
X117370000Y-114576000D01*
%TO.N,Net-(J2-Pin_6)*%
X127762000Y-127762000D02*
X107188000Y-107188000D01*
X127762000Y-130513606D02*
X127762000Y-127762000D01*
X124365606Y-133910000D02*
X127762000Y-130513606D01*
X123905000Y-133910000D02*
X124365606Y-133910000D01*
%TO.N,Net-(J2-Pin_5)*%
X122525000Y-55585000D02*
X121025000Y-55585000D01*
X127508000Y-60568000D02*
X122525000Y-55585000D01*
X127530000Y-84575000D02*
X127530000Y-67840000D01*
X127508000Y-67818000D02*
X127508000Y-60568000D01*
X123713000Y-88392000D02*
X127530000Y-84575000D01*
X127530000Y-67840000D02*
X127508000Y-67818000D01*
X105918000Y-94996000D02*
X112522000Y-88392000D01*
X105918000Y-108303000D02*
X105918000Y-94996000D01*
X123905000Y-126290000D02*
X105918000Y-108303000D01*
%TO.N,Net-(J2-Pin_6)*%
X118872000Y-53698000D02*
X119525000Y-53045000D01*
X118872000Y-68072000D02*
X118872000Y-53698000D01*
X117602000Y-69342000D02*
X118872000Y-68072000D01*
X107291500Y-70000500D02*
X107950000Y-69342000D01*
X119525000Y-53045000D02*
X121025000Y-53045000D01*
X107291500Y-71374000D02*
X107291500Y-70000500D01*
%TO.N,Net-(D1-K)*%
X111988500Y-71374000D02*
X109116500Y-71374000D01*
%TO.N,Net-(D1-A)*%
X113563500Y-71374000D02*
X122174000Y-71374000D01*
X122809000Y-70739000D02*
X122047000Y-71501000D01*
X122174000Y-71374000D02*
X122809000Y-70739000D01*
X123952000Y-69596000D02*
X122809000Y-70739000D01*
X122047000Y-71501000D02*
X117370000Y-76178000D01*
%TO.N,Net-(J1-Pin_1)*%
X118283654Y-99825000D02*
X117370000Y-99825000D01*
X122280654Y-95828000D02*
X118283654Y-99825000D01*
X137306000Y-99032942D02*
X134101058Y-95828000D01*
X137306000Y-138711058D02*
X137306000Y-99032942D01*
X108772157Y-139639843D02*
X136377215Y-139639843D01*
X105372000Y-143040000D02*
X108772157Y-139639843D01*
X134101058Y-95828000D02*
X122280654Y-95828000D01*
X101130000Y-143040000D02*
X105372000Y-143040000D01*
X136377215Y-139639843D02*
X137306000Y-138711058D01*
X98044000Y-139954000D02*
X101130000Y-143040000D01*
X92594629Y-139954000D02*
X98044000Y-139954000D01*
X91910000Y-139269371D02*
X92594629Y-139954000D01*
X91910000Y-61120000D02*
X91910000Y-139269371D01*
X102525000Y-50505000D02*
X91910000Y-61120000D01*
X104025000Y-50505000D02*
X102525000Y-50505000D01*
%TO.N,Net-(J1-Pin_2)*%
X123507000Y-96228000D02*
X119910000Y-99825000D01*
X133935372Y-96228000D02*
X123507000Y-96228000D01*
X136906000Y-99198628D02*
X133935372Y-96228000D01*
X136906000Y-138545372D02*
X136906000Y-99198628D01*
X136211529Y-139239843D02*
X136906000Y-138545372D01*
X108525529Y-139239843D02*
X136211529Y-139239843D01*
X105125372Y-142640000D02*
X108525529Y-139239843D01*
X98240314Y-139446000D02*
X101434314Y-142640000D01*
X101434314Y-142640000D02*
X105125372Y-142640000D01*
X92652315Y-139446000D02*
X98240314Y-139446000D01*
X92310000Y-139103685D02*
X92652315Y-139446000D01*
X92310000Y-63260000D02*
X92310000Y-139103685D01*
X102525000Y-53045000D02*
X92310000Y-63260000D01*
X104025000Y-53045000D02*
X102525000Y-53045000D01*
%TO.N,Net-(J1-Pin_3)*%
X125647000Y-96628000D02*
X122450000Y-99825000D01*
X133769686Y-96628000D02*
X125647000Y-96628000D01*
X136474000Y-99332314D02*
X133769686Y-96628000D01*
X136045843Y-138839843D02*
X136474000Y-138411686D01*
X104997159Y-142202527D02*
X108359843Y-138839843D01*
X104939473Y-142202527D02*
X104997159Y-142202527D01*
X104902000Y-142240000D02*
X104939473Y-142202527D01*
X101600000Y-142240000D02*
X104902000Y-142240000D01*
X92710000Y-138938000D02*
X98298000Y-138938000D01*
X136474000Y-138411686D02*
X136474000Y-99332314D01*
X92710000Y-65400000D02*
X92710000Y-138938000D01*
X102525000Y-55585000D02*
X92710000Y-65400000D01*
X98298000Y-138938000D02*
X101600000Y-142240000D01*
X104025000Y-55585000D02*
X102525000Y-55585000D01*
X108359843Y-138839843D02*
X136045843Y-138839843D01*
%TO.N,Net-(J1-Pin_4)*%
X127787000Y-97028000D02*
X124990000Y-99825000D01*
X133604000Y-97028000D02*
X127787000Y-97028000D01*
X135890000Y-138430000D02*
X136074000Y-138246000D01*
X108204000Y-138430000D02*
X135890000Y-138430000D01*
X104831473Y-141802527D02*
X108204000Y-138430000D01*
X101924527Y-141802527D02*
X104831473Y-141802527D01*
X136074000Y-99498000D02*
X133604000Y-97028000D01*
X98552000Y-138430000D02*
X101924527Y-141802527D01*
X93218000Y-67432000D02*
X93218000Y-138430000D01*
X93218000Y-138430000D02*
X98552000Y-138430000D01*
X102525000Y-58125000D02*
X93218000Y-67432000D01*
X136074000Y-138246000D02*
X136074000Y-99498000D01*
X104025000Y-58125000D02*
X102525000Y-58125000D01*
%TO.N,Net-(J1-Pin_5)*%
X133407686Y-97536000D02*
X129819000Y-97536000D01*
X135674000Y-99802314D02*
X133407686Y-97536000D01*
X135674000Y-137884000D02*
X135674000Y-99802314D01*
X129819000Y-97536000D02*
X127530000Y-99825000D01*
X135185686Y-137922000D02*
X135636000Y-137922000D01*
X135156843Y-137950843D02*
X135185686Y-137922000D01*
X104527159Y-141402527D02*
X107978843Y-137950843D01*
X135636000Y-137922000D02*
X135674000Y-137884000D01*
X102286527Y-141402527D02*
X104527159Y-141402527D01*
X98806000Y-137922000D02*
X102286527Y-141402527D01*
X107978843Y-137950843D02*
X135156843Y-137950843D01*
X93726000Y-137922000D02*
X98806000Y-137922000D01*
X102525000Y-60665000D02*
X93726000Y-69464000D01*
X104025000Y-60665000D02*
X102525000Y-60665000D01*
X93726000Y-69464000D02*
X93726000Y-137922000D01*
%TO.N,Net-(J1-Pin_6)*%
X130810000Y-99085000D02*
X130070000Y-99825000D01*
X130810000Y-98298000D02*
X130810000Y-99085000D01*
X131064000Y-98044000D02*
X130810000Y-98298000D01*
X135274000Y-99968000D02*
X133350000Y-98044000D01*
X133350000Y-98044000D02*
X131064000Y-98044000D01*
X135274000Y-137268000D02*
X135274000Y-99968000D01*
X104361473Y-141002527D02*
X107950000Y-137414000D01*
X107950000Y-137414000D02*
X135128000Y-137414000D01*
X102676669Y-141002527D02*
X104361473Y-141002527D01*
X101910585Y-140195409D02*
X102124571Y-140450429D01*
X101791906Y-139989850D02*
X101910585Y-140195409D01*
X99216056Y-137414000D02*
X101791906Y-139989850D01*
X135128000Y-137414000D02*
X135274000Y-137268000D01*
X94234000Y-137414000D02*
X99216056Y-137414000D01*
X94234000Y-71496000D02*
X94234000Y-137414000D01*
X102525000Y-63205000D02*
X94234000Y-71496000D01*
X102124571Y-140450429D02*
X102676669Y-141002527D01*
X104025000Y-63205000D02*
X102525000Y-63205000D01*
%TO.N,Net-(J1-Pin_7)*%
X134874000Y-102089000D02*
X132610000Y-99825000D01*
X134874000Y-136652000D02*
X134874000Y-102089000D01*
X94742000Y-136906000D02*
X134620000Y-136906000D01*
X94742000Y-75028000D02*
X94742000Y-136906000D01*
X134620000Y-136906000D02*
X134874000Y-136652000D01*
X104025000Y-65745000D02*
X94742000Y-75028000D01*
%TO.N,Net-(J2-Pin_7)*%
X132588000Y-62230000D02*
X132610000Y-62252000D01*
X132610000Y-62252000D02*
X132610000Y-84575000D01*
X132588000Y-60568000D02*
X132588000Y-62230000D01*
X122525000Y-50505000D02*
X132588000Y-60568000D01*
X121025000Y-50505000D02*
X122525000Y-50505000D01*
%TO.N,Net-(J2-Pin_4)*%
X126238000Y-70612000D02*
X124990000Y-71860000D01*
X126238000Y-61838000D02*
X126238000Y-70612000D01*
X122525000Y-58125000D02*
X126238000Y-61838000D01*
X121025000Y-58125000D02*
X122525000Y-58125000D01*
X124990000Y-71860000D02*
X124990000Y-84575000D01*
%TO.N,Net-(J2-Pin_3)*%
X125476000Y-70358000D02*
X122428000Y-73406000D01*
X122428000Y-73406000D02*
X122450000Y-73428000D01*
X122450000Y-73428000D02*
X122450000Y-84575000D01*
X122525000Y-60665000D02*
X125476000Y-63616000D01*
X125476000Y-63616000D02*
X125476000Y-70358000D01*
X121025000Y-60665000D02*
X122525000Y-60665000D01*
%TO.N,Net-(J2-Pin_2)*%
X119888000Y-74676000D02*
X119910000Y-74698000D01*
X124714000Y-69850000D02*
X119888000Y-74676000D01*
X119910000Y-74698000D02*
X119910000Y-84575000D01*
X124714000Y-66671336D02*
X124714000Y-69850000D01*
X121247664Y-63205000D02*
X124714000Y-66671336D01*
X121025000Y-63205000D02*
X121247664Y-63205000D01*
%TO.N,Net-(D1-A)*%
X123952000Y-66802000D02*
X123952000Y-69596000D01*
X117370000Y-76178000D02*
X117370000Y-84575000D01*
X122895000Y-65745000D02*
X123952000Y-66802000D01*
X121025000Y-65745000D02*
X122895000Y-65745000D01*
%TD*%
M02*
