%TF.GenerationSoftware,KiCad,Pcbnew,8.0.8*%
%TF.CreationDate,2025-02-26T13:49:19-08:00*%
%TF.ProjectId,pLUFsPCB,704c5546-7350-4434-922e-6b696361645f,1*%
%TF.SameCoordinates,Original*%
%TF.FileFunction,Legend,Top*%
%TF.FilePolarity,Positive*%
%FSLAX46Y46*%
G04 Gerber Fmt 4.6, Leading zero omitted, Abs format (unit mm)*
G04 Created by KiCad (PCBNEW 8.0.8) date 2025-02-26 13:49:19*
%MOMM*%
%LPD*%
G01*
G04 APERTURE LIST*
%ADD10C,0.100000*%
%ADD11C,0.150000*%
%ADD12C,0.120000*%
G04 APERTURE END LIST*
D10*
X103967598Y-79644419D02*
X103967598Y-80358704D01*
X103967598Y-80358704D02*
X103919979Y-80501561D01*
X103919979Y-80501561D02*
X103824741Y-80596800D01*
X103824741Y-80596800D02*
X103681884Y-80644419D01*
X103681884Y-80644419D02*
X103586646Y-80644419D01*
X104872360Y-80644419D02*
X104872360Y-80120609D01*
X104872360Y-80120609D02*
X104824741Y-80025371D01*
X104824741Y-80025371D02*
X104729503Y-79977752D01*
X104729503Y-79977752D02*
X104539027Y-79977752D01*
X104539027Y-79977752D02*
X104443789Y-80025371D01*
X104872360Y-80596800D02*
X104777122Y-80644419D01*
X104777122Y-80644419D02*
X104539027Y-80644419D01*
X104539027Y-80644419D02*
X104443789Y-80596800D01*
X104443789Y-80596800D02*
X104396170Y-80501561D01*
X104396170Y-80501561D02*
X104396170Y-80406323D01*
X104396170Y-80406323D02*
X104443789Y-80311085D01*
X104443789Y-80311085D02*
X104539027Y-80263466D01*
X104539027Y-80263466D02*
X104777122Y-80263466D01*
X104777122Y-80263466D02*
X104872360Y-80215847D01*
X105777122Y-80644419D02*
X105777122Y-79644419D01*
X105777122Y-80596800D02*
X105681884Y-80644419D01*
X105681884Y-80644419D02*
X105491408Y-80644419D01*
X105491408Y-80644419D02*
X105396170Y-80596800D01*
X105396170Y-80596800D02*
X105348551Y-80549180D01*
X105348551Y-80549180D02*
X105300932Y-80453942D01*
X105300932Y-80453942D02*
X105300932Y-80168228D01*
X105300932Y-80168228D02*
X105348551Y-80072990D01*
X105348551Y-80072990D02*
X105396170Y-80025371D01*
X105396170Y-80025371D02*
X105491408Y-79977752D01*
X105491408Y-79977752D02*
X105681884Y-79977752D01*
X105681884Y-79977752D02*
X105777122Y-80025371D01*
X106634265Y-80596800D02*
X106539027Y-80644419D01*
X106539027Y-80644419D02*
X106348551Y-80644419D01*
X106348551Y-80644419D02*
X106253313Y-80596800D01*
X106253313Y-80596800D02*
X106205694Y-80501561D01*
X106205694Y-80501561D02*
X106205694Y-80120609D01*
X106205694Y-80120609D02*
X106253313Y-80025371D01*
X106253313Y-80025371D02*
X106348551Y-79977752D01*
X106348551Y-79977752D02*
X106539027Y-79977752D01*
X106539027Y-79977752D02*
X106634265Y-80025371D01*
X106634265Y-80025371D02*
X106681884Y-80120609D01*
X106681884Y-80120609D02*
X106681884Y-80215847D01*
X106681884Y-80215847D02*
X106205694Y-80311085D01*
X107110456Y-79977752D02*
X107110456Y-80644419D01*
X107110456Y-80072990D02*
X107158075Y-80025371D01*
X107158075Y-80025371D02*
X107253313Y-79977752D01*
X107253313Y-79977752D02*
X107396170Y-79977752D01*
X107396170Y-79977752D02*
X107491408Y-80025371D01*
X107491408Y-80025371D02*
X107539027Y-80120609D01*
X107539027Y-80120609D02*
X107539027Y-80644419D01*
X108777123Y-80644419D02*
X108777123Y-79644419D01*
X108777123Y-79644419D02*
X109110456Y-80358704D01*
X109110456Y-80358704D02*
X109443789Y-79644419D01*
X109443789Y-79644419D02*
X109443789Y-80644419D01*
X110062837Y-80644419D02*
X109967599Y-80596800D01*
X109967599Y-80596800D02*
X109919980Y-80549180D01*
X109919980Y-80549180D02*
X109872361Y-80453942D01*
X109872361Y-80453942D02*
X109872361Y-80168228D01*
X109872361Y-80168228D02*
X109919980Y-80072990D01*
X109919980Y-80072990D02*
X109967599Y-80025371D01*
X109967599Y-80025371D02*
X110062837Y-79977752D01*
X110062837Y-79977752D02*
X110205694Y-79977752D01*
X110205694Y-79977752D02*
X110300932Y-80025371D01*
X110300932Y-80025371D02*
X110348551Y-80072990D01*
X110348551Y-80072990D02*
X110396170Y-80168228D01*
X110396170Y-80168228D02*
X110396170Y-80453942D01*
X110396170Y-80453942D02*
X110348551Y-80549180D01*
X110348551Y-80549180D02*
X110300932Y-80596800D01*
X110300932Y-80596800D02*
X110205694Y-80644419D01*
X110205694Y-80644419D02*
X110062837Y-80644419D01*
X110967599Y-80644419D02*
X110872361Y-80596800D01*
X110872361Y-80596800D02*
X110824742Y-80549180D01*
X110824742Y-80549180D02*
X110777123Y-80453942D01*
X110777123Y-80453942D02*
X110777123Y-80168228D01*
X110777123Y-80168228D02*
X110824742Y-80072990D01*
X110824742Y-80072990D02*
X110872361Y-80025371D01*
X110872361Y-80025371D02*
X110967599Y-79977752D01*
X110967599Y-79977752D02*
X111110456Y-79977752D01*
X111110456Y-79977752D02*
X111205694Y-80025371D01*
X111205694Y-80025371D02*
X111253313Y-80072990D01*
X111253313Y-80072990D02*
X111300932Y-80168228D01*
X111300932Y-80168228D02*
X111300932Y-80453942D01*
X111300932Y-80453942D02*
X111253313Y-80549180D01*
X111253313Y-80549180D02*
X111205694Y-80596800D01*
X111205694Y-80596800D02*
X111110456Y-80644419D01*
X111110456Y-80644419D02*
X110967599Y-80644419D01*
X111729504Y-79977752D02*
X111729504Y-80644419D01*
X111729504Y-80072990D02*
X111777123Y-80025371D01*
X111777123Y-80025371D02*
X111872361Y-79977752D01*
X111872361Y-79977752D02*
X112015218Y-79977752D01*
X112015218Y-79977752D02*
X112110456Y-80025371D01*
X112110456Y-80025371D02*
X112158075Y-80120609D01*
X112158075Y-80120609D02*
X112158075Y-80644419D01*
X112681885Y-80596800D02*
X112681885Y-80644419D01*
X112681885Y-80644419D02*
X112634266Y-80739657D01*
X112634266Y-80739657D02*
X112586647Y-80787276D01*
X112634266Y-80025371D02*
X112681885Y-80072990D01*
X112681885Y-80072990D02*
X112634266Y-80120609D01*
X112634266Y-80120609D02*
X112586647Y-80072990D01*
X112586647Y-80072990D02*
X112634266Y-80025371D01*
X112634266Y-80025371D02*
X112634266Y-80120609D01*
X113729504Y-79644419D02*
X114062837Y-80644419D01*
X114062837Y-80644419D02*
X114396170Y-79644419D01*
X114681885Y-79739657D02*
X114729504Y-79692038D01*
X114729504Y-79692038D02*
X114824742Y-79644419D01*
X114824742Y-79644419D02*
X115062837Y-79644419D01*
X115062837Y-79644419D02*
X115158075Y-79692038D01*
X115158075Y-79692038D02*
X115205694Y-79739657D01*
X115205694Y-79739657D02*
X115253313Y-79834895D01*
X115253313Y-79834895D02*
X115253313Y-79930133D01*
X115253313Y-79930133D02*
X115205694Y-80072990D01*
X115205694Y-80072990D02*
X114634266Y-80644419D01*
X114634266Y-80644419D02*
X115253313Y-80644419D01*
X115681885Y-80549180D02*
X115729504Y-80596800D01*
X115729504Y-80596800D02*
X115681885Y-80644419D01*
X115681885Y-80644419D02*
X115634266Y-80596800D01*
X115634266Y-80596800D02*
X115681885Y-80549180D01*
X115681885Y-80549180D02*
X115681885Y-80644419D01*
X116348551Y-79644419D02*
X116443789Y-79644419D01*
X116443789Y-79644419D02*
X116539027Y-79692038D01*
X116539027Y-79692038D02*
X116586646Y-79739657D01*
X116586646Y-79739657D02*
X116634265Y-79834895D01*
X116634265Y-79834895D02*
X116681884Y-80025371D01*
X116681884Y-80025371D02*
X116681884Y-80263466D01*
X116681884Y-80263466D02*
X116634265Y-80453942D01*
X116634265Y-80453942D02*
X116586646Y-80549180D01*
X116586646Y-80549180D02*
X116539027Y-80596800D01*
X116539027Y-80596800D02*
X116443789Y-80644419D01*
X116443789Y-80644419D02*
X116348551Y-80644419D01*
X116348551Y-80644419D02*
X116253313Y-80596800D01*
X116253313Y-80596800D02*
X116205694Y-80549180D01*
X116205694Y-80549180D02*
X116158075Y-80453942D01*
X116158075Y-80453942D02*
X116110456Y-80263466D01*
X116110456Y-80263466D02*
X116110456Y-80025371D01*
X116110456Y-80025371D02*
X116158075Y-79834895D01*
X116158075Y-79834895D02*
X116205694Y-79739657D01*
X116205694Y-79739657D02*
X116253313Y-79692038D01*
X116253313Y-79692038D02*
X116348551Y-79644419D01*
D11*
X101420819Y-76366666D02*
X100944628Y-76699999D01*
X101420819Y-76938094D02*
X100420819Y-76938094D01*
X100420819Y-76938094D02*
X100420819Y-76557142D01*
X100420819Y-76557142D02*
X100468438Y-76461904D01*
X100468438Y-76461904D02*
X100516057Y-76414285D01*
X100516057Y-76414285D02*
X100611295Y-76366666D01*
X100611295Y-76366666D02*
X100754152Y-76366666D01*
X100754152Y-76366666D02*
X100849390Y-76414285D01*
X100849390Y-76414285D02*
X100897009Y-76461904D01*
X100897009Y-76461904D02*
X100944628Y-76557142D01*
X100944628Y-76557142D02*
X100944628Y-76938094D01*
X100420819Y-76033332D02*
X100420819Y-75414285D01*
X100420819Y-75414285D02*
X100801771Y-75747618D01*
X100801771Y-75747618D02*
X100801771Y-75604761D01*
X100801771Y-75604761D02*
X100849390Y-75509523D01*
X100849390Y-75509523D02*
X100897009Y-75461904D01*
X100897009Y-75461904D02*
X100992247Y-75414285D01*
X100992247Y-75414285D02*
X101230342Y-75414285D01*
X101230342Y-75414285D02*
X101325580Y-75461904D01*
X101325580Y-75461904D02*
X101373200Y-75509523D01*
X101373200Y-75509523D02*
X101420819Y-75604761D01*
X101420819Y-75604761D02*
X101420819Y-75890475D01*
X101420819Y-75890475D02*
X101373200Y-75985713D01*
X101373200Y-75985713D02*
X101325580Y-76033332D01*
X23789667Y-75144200D02*
X23932524Y-75191819D01*
X23932524Y-75191819D02*
X24170619Y-75191819D01*
X24170619Y-75191819D02*
X24265857Y-75144200D01*
X24265857Y-75144200D02*
X24313476Y-75096580D01*
X24313476Y-75096580D02*
X24361095Y-75001342D01*
X24361095Y-75001342D02*
X24361095Y-74906104D01*
X24361095Y-74906104D02*
X24313476Y-74810866D01*
X24313476Y-74810866D02*
X24265857Y-74763247D01*
X24265857Y-74763247D02*
X24170619Y-74715628D01*
X24170619Y-74715628D02*
X23980143Y-74668009D01*
X23980143Y-74668009D02*
X23884905Y-74620390D01*
X23884905Y-74620390D02*
X23837286Y-74572771D01*
X23837286Y-74572771D02*
X23789667Y-74477533D01*
X23789667Y-74477533D02*
X23789667Y-74382295D01*
X23789667Y-74382295D02*
X23837286Y-74287057D01*
X23837286Y-74287057D02*
X23884905Y-74239438D01*
X23884905Y-74239438D02*
X23980143Y-74191819D01*
X23980143Y-74191819D02*
X24218238Y-74191819D01*
X24218238Y-74191819D02*
X24361095Y-74239438D01*
X24694429Y-74191819D02*
X24932524Y-75191819D01*
X24932524Y-75191819D02*
X25123000Y-74477533D01*
X25123000Y-74477533D02*
X25313476Y-75191819D01*
X25313476Y-75191819D02*
X25551572Y-74191819D01*
X26456333Y-75191819D02*
X25884905Y-75191819D01*
X26170619Y-75191819D02*
X26170619Y-74191819D01*
X26170619Y-74191819D02*
X26075381Y-74334676D01*
X26075381Y-74334676D02*
X25980143Y-74429914D01*
X25980143Y-74429914D02*
X25884905Y-74477533D01*
X117101580Y-91286666D02*
X117149200Y-91334285D01*
X117149200Y-91334285D02*
X117196819Y-91477142D01*
X117196819Y-91477142D02*
X117196819Y-91572380D01*
X117196819Y-91572380D02*
X117149200Y-91715237D01*
X117149200Y-91715237D02*
X117053961Y-91810475D01*
X117053961Y-91810475D02*
X116958723Y-91858094D01*
X116958723Y-91858094D02*
X116768247Y-91905713D01*
X116768247Y-91905713D02*
X116625390Y-91905713D01*
X116625390Y-91905713D02*
X116434914Y-91858094D01*
X116434914Y-91858094D02*
X116339676Y-91810475D01*
X116339676Y-91810475D02*
X116244438Y-91715237D01*
X116244438Y-91715237D02*
X116196819Y-91572380D01*
X116196819Y-91572380D02*
X116196819Y-91477142D01*
X116196819Y-91477142D02*
X116244438Y-91334285D01*
X116244438Y-91334285D02*
X116292057Y-91286666D01*
X116292057Y-90905713D02*
X116244438Y-90858094D01*
X116244438Y-90858094D02*
X116196819Y-90762856D01*
X116196819Y-90762856D02*
X116196819Y-90524761D01*
X116196819Y-90524761D02*
X116244438Y-90429523D01*
X116244438Y-90429523D02*
X116292057Y-90381904D01*
X116292057Y-90381904D02*
X116387295Y-90334285D01*
X116387295Y-90334285D02*
X116482533Y-90334285D01*
X116482533Y-90334285D02*
X116625390Y-90381904D01*
X116625390Y-90381904D02*
X117196819Y-90953332D01*
X117196819Y-90953332D02*
X117196819Y-90334285D01*
X112204833Y-104214819D02*
X111871500Y-103738628D01*
X111633405Y-104214819D02*
X111633405Y-103214819D01*
X111633405Y-103214819D02*
X112014357Y-103214819D01*
X112014357Y-103214819D02*
X112109595Y-103262438D01*
X112109595Y-103262438D02*
X112157214Y-103310057D01*
X112157214Y-103310057D02*
X112204833Y-103405295D01*
X112204833Y-103405295D02*
X112204833Y-103548152D01*
X112204833Y-103548152D02*
X112157214Y-103643390D01*
X112157214Y-103643390D02*
X112109595Y-103691009D01*
X112109595Y-103691009D02*
X112014357Y-103738628D01*
X112014357Y-103738628D02*
X111633405Y-103738628D01*
X113061976Y-103548152D02*
X113061976Y-104214819D01*
X112823881Y-103167200D02*
X112585786Y-103881485D01*
X112585786Y-103881485D02*
X113204833Y-103881485D01*
D10*
X110395476Y-111507419D02*
X110395476Y-110507419D01*
X110395476Y-110507419D02*
X110728809Y-111221704D01*
X110728809Y-111221704D02*
X111062142Y-110507419D01*
X111062142Y-110507419D02*
X111062142Y-111507419D01*
X112062142Y-111507419D02*
X111490714Y-111507419D01*
X111776428Y-111507419D02*
X111776428Y-110507419D01*
X111776428Y-110507419D02*
X111681190Y-110650276D01*
X111681190Y-110650276D02*
X111585952Y-110745514D01*
X111585952Y-110745514D02*
X111490714Y-110793133D01*
D11*
X112037905Y-70398819D02*
X112037905Y-69398819D01*
X112037905Y-69398819D02*
X112276000Y-69398819D01*
X112276000Y-69398819D02*
X112418857Y-69446438D01*
X112418857Y-69446438D02*
X112514095Y-69541676D01*
X112514095Y-69541676D02*
X112561714Y-69636914D01*
X112561714Y-69636914D02*
X112609333Y-69827390D01*
X112609333Y-69827390D02*
X112609333Y-69970247D01*
X112609333Y-69970247D02*
X112561714Y-70160723D01*
X112561714Y-70160723D02*
X112514095Y-70255961D01*
X112514095Y-70255961D02*
X112418857Y-70351200D01*
X112418857Y-70351200D02*
X112276000Y-70398819D01*
X112276000Y-70398819D02*
X112037905Y-70398819D01*
X113561714Y-70398819D02*
X112990286Y-70398819D01*
X113276000Y-70398819D02*
X113276000Y-69398819D01*
X113276000Y-69398819D02*
X113180762Y-69541676D01*
X113180762Y-69541676D02*
X113085524Y-69636914D01*
X113085524Y-69636914D02*
X112990286Y-69684533D01*
X122181580Y-91286666D02*
X122229200Y-91334285D01*
X122229200Y-91334285D02*
X122276819Y-91477142D01*
X122276819Y-91477142D02*
X122276819Y-91572380D01*
X122276819Y-91572380D02*
X122229200Y-91715237D01*
X122229200Y-91715237D02*
X122133961Y-91810475D01*
X122133961Y-91810475D02*
X122038723Y-91858094D01*
X122038723Y-91858094D02*
X121848247Y-91905713D01*
X121848247Y-91905713D02*
X121705390Y-91905713D01*
X121705390Y-91905713D02*
X121514914Y-91858094D01*
X121514914Y-91858094D02*
X121419676Y-91810475D01*
X121419676Y-91810475D02*
X121324438Y-91715237D01*
X121324438Y-91715237D02*
X121276819Y-91572380D01*
X121276819Y-91572380D02*
X121276819Y-91477142D01*
X121276819Y-91477142D02*
X121324438Y-91334285D01*
X121324438Y-91334285D02*
X121372057Y-91286666D01*
X121276819Y-90953332D02*
X121276819Y-90334285D01*
X121276819Y-90334285D02*
X121657771Y-90667618D01*
X121657771Y-90667618D02*
X121657771Y-90524761D01*
X121657771Y-90524761D02*
X121705390Y-90429523D01*
X121705390Y-90429523D02*
X121753009Y-90381904D01*
X121753009Y-90381904D02*
X121848247Y-90334285D01*
X121848247Y-90334285D02*
X122086342Y-90334285D01*
X122086342Y-90334285D02*
X122181580Y-90381904D01*
X122181580Y-90381904D02*
X122229200Y-90429523D01*
X122229200Y-90429523D02*
X122276819Y-90524761D01*
X122276819Y-90524761D02*
X122276819Y-90810475D01*
X122276819Y-90810475D02*
X122229200Y-90905713D01*
X122229200Y-90905713D02*
X122181580Y-90953332D01*
X44537333Y-62712819D02*
X44204000Y-62236628D01*
X43965905Y-62712819D02*
X43965905Y-61712819D01*
X43965905Y-61712819D02*
X44346857Y-61712819D01*
X44346857Y-61712819D02*
X44442095Y-61760438D01*
X44442095Y-61760438D02*
X44489714Y-61808057D01*
X44489714Y-61808057D02*
X44537333Y-61903295D01*
X44537333Y-61903295D02*
X44537333Y-62046152D01*
X44537333Y-62046152D02*
X44489714Y-62141390D01*
X44489714Y-62141390D02*
X44442095Y-62189009D01*
X44442095Y-62189009D02*
X44346857Y-62236628D01*
X44346857Y-62236628D02*
X43965905Y-62236628D01*
X45489714Y-62712819D02*
X44918286Y-62712819D01*
X45204000Y-62712819D02*
X45204000Y-61712819D01*
X45204000Y-61712819D02*
X45108762Y-61855676D01*
X45108762Y-61855676D02*
X45013524Y-61950914D01*
X45013524Y-61950914D02*
X44918286Y-61998533D01*
X118763095Y-45579819D02*
X118763095Y-46389342D01*
X118763095Y-46389342D02*
X118810714Y-46484580D01*
X118810714Y-46484580D02*
X118858333Y-46532200D01*
X118858333Y-46532200D02*
X118953571Y-46579819D01*
X118953571Y-46579819D02*
X119144047Y-46579819D01*
X119144047Y-46579819D02*
X119239285Y-46532200D01*
X119239285Y-46532200D02*
X119286904Y-46484580D01*
X119286904Y-46484580D02*
X119334523Y-46389342D01*
X119334523Y-46389342D02*
X119334523Y-45579819D01*
X120334523Y-46579819D02*
X119763095Y-46579819D01*
X120048809Y-46579819D02*
X120048809Y-45579819D01*
X120048809Y-45579819D02*
X119953571Y-45722676D01*
X119953571Y-45722676D02*
X119858333Y-45817914D01*
X119858333Y-45817914D02*
X119763095Y-45865533D01*
X33369333Y-121088580D02*
X33321714Y-121136200D01*
X33321714Y-121136200D02*
X33178857Y-121183819D01*
X33178857Y-121183819D02*
X33083619Y-121183819D01*
X33083619Y-121183819D02*
X32940762Y-121136200D01*
X32940762Y-121136200D02*
X32845524Y-121040961D01*
X32845524Y-121040961D02*
X32797905Y-120945723D01*
X32797905Y-120945723D02*
X32750286Y-120755247D01*
X32750286Y-120755247D02*
X32750286Y-120612390D01*
X32750286Y-120612390D02*
X32797905Y-120421914D01*
X32797905Y-120421914D02*
X32845524Y-120326676D01*
X32845524Y-120326676D02*
X32940762Y-120231438D01*
X32940762Y-120231438D02*
X33083619Y-120183819D01*
X33083619Y-120183819D02*
X33178857Y-120183819D01*
X33178857Y-120183819D02*
X33321714Y-120231438D01*
X33321714Y-120231438D02*
X33369333Y-120279057D01*
X34321714Y-121183819D02*
X33750286Y-121183819D01*
X34036000Y-121183819D02*
X34036000Y-120183819D01*
X34036000Y-120183819D02*
X33940762Y-120326676D01*
X33940762Y-120326676D02*
X33845524Y-120421914D01*
X33845524Y-120421914D02*
X33750286Y-120469533D01*
X108037333Y-73478819D02*
X107704000Y-73002628D01*
X107465905Y-73478819D02*
X107465905Y-72478819D01*
X107465905Y-72478819D02*
X107846857Y-72478819D01*
X107846857Y-72478819D02*
X107942095Y-72526438D01*
X107942095Y-72526438D02*
X107989714Y-72574057D01*
X107989714Y-72574057D02*
X108037333Y-72669295D01*
X108037333Y-72669295D02*
X108037333Y-72812152D01*
X108037333Y-72812152D02*
X107989714Y-72907390D01*
X107989714Y-72907390D02*
X107942095Y-72955009D01*
X107942095Y-72955009D02*
X107846857Y-73002628D01*
X107846857Y-73002628D02*
X107465905Y-73002628D01*
X108418286Y-72574057D02*
X108465905Y-72526438D01*
X108465905Y-72526438D02*
X108561143Y-72478819D01*
X108561143Y-72478819D02*
X108799238Y-72478819D01*
X108799238Y-72478819D02*
X108894476Y-72526438D01*
X108894476Y-72526438D02*
X108942095Y-72574057D01*
X108942095Y-72574057D02*
X108989714Y-72669295D01*
X108989714Y-72669295D02*
X108989714Y-72764533D01*
X108989714Y-72764533D02*
X108942095Y-72907390D01*
X108942095Y-72907390D02*
X108370667Y-73478819D01*
X108370667Y-73478819D02*
X108989714Y-73478819D01*
X113549819Y-100419333D02*
X114264104Y-100419333D01*
X114264104Y-100419333D02*
X114406961Y-100466952D01*
X114406961Y-100466952D02*
X114502200Y-100562190D01*
X114502200Y-100562190D02*
X114549819Y-100705047D01*
X114549819Y-100705047D02*
X114549819Y-100800285D01*
X114549819Y-99419333D02*
X114549819Y-99990761D01*
X114549819Y-99705047D02*
X113549819Y-99705047D01*
X113549819Y-99705047D02*
X113692676Y-99800285D01*
X113692676Y-99800285D02*
X113787914Y-99895523D01*
X113787914Y-99895523D02*
X113835533Y-99990761D01*
X114494819Y-85169333D02*
X115209104Y-85169333D01*
X115209104Y-85169333D02*
X115351961Y-85216952D01*
X115351961Y-85216952D02*
X115447200Y-85312190D01*
X115447200Y-85312190D02*
X115494819Y-85455047D01*
X115494819Y-85455047D02*
X115494819Y-85550285D01*
X114590057Y-84740761D02*
X114542438Y-84693142D01*
X114542438Y-84693142D02*
X114494819Y-84597904D01*
X114494819Y-84597904D02*
X114494819Y-84359809D01*
X114494819Y-84359809D02*
X114542438Y-84264571D01*
X114542438Y-84264571D02*
X114590057Y-84216952D01*
X114590057Y-84216952D02*
X114685295Y-84169333D01*
X114685295Y-84169333D02*
X114780533Y-84169333D01*
X114780533Y-84169333D02*
X114923390Y-84216952D01*
X114923390Y-84216952D02*
X115494819Y-84788380D01*
X115494819Y-84788380D02*
X115494819Y-84169333D01*
D12*
%TO.C,R3*%
X103351000Y-76427064D02*
X103351000Y-75972936D01*
X101881000Y-76427064D02*
X101881000Y-75972936D01*
%TO.C,SW1*%
X23198000Y-78062000D02*
X23198000Y-83312000D01*
X23198000Y-88562000D02*
X23198000Y-87312000D01*
X23748000Y-78062000D02*
X23198000Y-78062000D01*
X23748000Y-88562000D02*
X23198000Y-88562000D01*
X33148000Y-78062000D02*
X33698000Y-78062000D01*
X33148000Y-88562000D02*
X33698000Y-88562000D01*
X33698000Y-78062000D02*
X33698000Y-79312000D01*
X33698000Y-88562000D02*
X33698000Y-87312000D01*
%TO.C,C2*%
X115797000Y-90858748D02*
X115797000Y-91381252D01*
X114327000Y-90858748D02*
X114327000Y-91381252D01*
%TO.C,R4*%
X112144436Y-104675000D02*
X112598564Y-104675000D01*
X112144436Y-106145000D02*
X112598564Y-106145000D01*
%TO.C,D1*%
X111291000Y-72109000D02*
X113576000Y-72109000D01*
X111291000Y-70639000D02*
X111291000Y-72109000D01*
X113576000Y-70639000D02*
X111291000Y-70639000D01*
%TO.C,C3*%
X120877000Y-90858748D02*
X120877000Y-91381252D01*
X119407000Y-90858748D02*
X119407000Y-91381252D01*
%TO.C,R1*%
X44476936Y-63173000D02*
X44931064Y-63173000D01*
X44476936Y-64643000D02*
X44931064Y-64643000D01*
%TO.C,U1*%
X116525000Y-46425000D02*
X116525000Y-47625000D01*
X108525000Y-46425000D02*
X116525000Y-46425000D01*
X119125000Y-47625000D02*
X116525000Y-47625000D01*
X108525000Y-47625000D02*
X108525000Y-46425000D01*
X108525000Y-47625000D02*
X105925000Y-47625000D01*
X105825000Y-68625000D02*
X119225000Y-68625000D01*
X119125000Y-47625001D02*
G75*
G02*
X121329036Y-49123535I64720J-2274919D01*
G01*
X103712108Y-49120320D02*
G75*
G02*
X105924532Y-47625001I2135279J-774913D01*
G01*
X121325000Y-67125000D02*
G75*
G02*
X119225000Y-68625000I-2174100J823740D01*
G01*
X105825000Y-68625000D02*
G75*
G02*
X103725000Y-67125000I74105J2323747D01*
G01*
%TO.C,C1*%
X33214748Y-121849000D02*
X33737252Y-121849000D01*
X33214748Y-123319000D02*
X33737252Y-123319000D01*
%TO.C,R2*%
X108431064Y-70639000D02*
X107976936Y-70639000D01*
X108431064Y-72109000D02*
X107976936Y-72109000D01*
%TO.C,J1*%
X133940000Y-101416000D02*
X133940000Y-98756000D01*
X118640000Y-101416000D02*
X133940000Y-101416000D01*
X118640000Y-101416000D02*
X118640000Y-98756000D01*
X118640000Y-98756000D02*
X133940000Y-98756000D01*
X117370000Y-101416000D02*
X116040000Y-101416000D01*
X116040000Y-101416000D02*
X116040000Y-100086000D01*
%TO.C,J2*%
X133940000Y-86166000D02*
X133940000Y-83506000D01*
X118640000Y-86166000D02*
X133940000Y-86166000D01*
X118640000Y-86166000D02*
X118640000Y-83506000D01*
X118640000Y-83506000D02*
X133940000Y-83506000D01*
X117370000Y-86166000D02*
X116040000Y-86166000D01*
X116040000Y-86166000D02*
X116040000Y-84836000D01*
%TD*%
M02*
