%TF.GenerationSoftware,KiCad,Pcbnew,8.0.8*%
%TF.CreationDate,2025-03-03T09:56:18-08:00*%
%TF.ProjectId,pLUFsPCB,704c5546-7350-4434-922e-6b696361645f,3*%
%TF.SameCoordinates,Original*%
%TF.FileFunction,Copper,L1,Top*%
%TF.FilePolarity,Positive*%
%FSLAX46Y46*%
G04 Gerber Fmt 4.6, Leading zero omitted, Abs format (unit mm)*
G04 Created by KiCad (PCBNEW 8.0.8) date 2025-03-03 09:56:18*
%MOMM*%
%LPD*%
G01*
G04 APERTURE LIST*
G04 Aperture macros list*
%AMRoundRect*
0 Rectangle with rounded corners*
0 $1 Rounding radius*
0 $2 $3 $4 $5 $6 $7 $8 $9 X,Y pos of 4 corners*
0 Add a 4 corners polygon primitive as box body*
4,1,4,$2,$3,$4,$5,$6,$7,$8,$9,$2,$3,0*
0 Add four circle primitives for the rounded corners*
1,1,$1+$1,$2,$3*
1,1,$1+$1,$4,$5*
1,1,$1+$1,$6,$7*
1,1,$1+$1,$8,$9*
0 Add four rect primitives between the rounded corners*
20,1,$1+$1,$2,$3,$4,$5,0*
20,1,$1+$1,$4,$5,$6,$7,0*
20,1,$1+$1,$6,$7,$8,$9,0*
20,1,$1+$1,$8,$9,$2,$3,0*%
G04 Aperture macros list end*
%TA.AperFunction,SMDPad,CuDef*%
%ADD10RoundRect,0.250000X-0.262500X-0.450000X0.262500X-0.450000X0.262500X0.450000X-0.262500X0.450000X0*%
%TD*%
%TA.AperFunction,SMDPad,CuDef*%
%ADD11RoundRect,0.250000X-0.475000X0.250000X-0.475000X-0.250000X0.475000X-0.250000X0.475000X0.250000X0*%
%TD*%
%TA.AperFunction,SMDPad,CuDef*%
%ADD12RoundRect,0.250000X0.450000X-0.262500X0.450000X0.262500X-0.450000X0.262500X-0.450000X-0.262500X0*%
%TD*%
%TA.AperFunction,ComponentPad*%
%ADD13C,1.700000*%
%TD*%
%TA.AperFunction,ComponentPad*%
%ADD14R,1.700000X1.700000*%
%TD*%
%TA.AperFunction,ComponentPad*%
%ADD15O,1.700000X1.700000*%
%TD*%
%TA.AperFunction,SMDPad,CuDef*%
%ADD16RoundRect,0.218750X-0.218750X-0.256250X0.218750X-0.256250X0.218750X0.256250X-0.218750X0.256250X0*%
%TD*%
%TA.AperFunction,SMDPad,CuDef*%
%ADD17RoundRect,0.500000X-1.000000X-0.500000X1.000000X-0.500000X1.000000X0.500000X-1.000000X0.500000X0*%
%TD*%
%TA.AperFunction,HeatsinkPad*%
%ADD18RoundRect,0.250000X-1.500000X-1.500000X1.500000X-1.500000X1.500000X1.500000X-1.500000X1.500000X0*%
%TD*%
%TA.AperFunction,SMDPad,CuDef*%
%ADD19RoundRect,0.250000X-0.900000X-0.400000X0.900000X-0.400000X0.900000X0.400000X-0.900000X0.400000X0*%
%TD*%
%TA.AperFunction,SMDPad,CuDef*%
%ADD20C,1.300000*%
%TD*%
%TA.AperFunction,SMDPad,CuDef*%
%ADD21RoundRect,0.250000X0.262500X0.450000X-0.262500X0.450000X-0.262500X-0.450000X0.262500X-0.450000X0*%
%TD*%
%TA.AperFunction,Conductor*%
%ADD22C,0.200000*%
%TD*%
G04 APERTURE END LIST*
D10*
%TO.P,R3,1*%
%TO.N,Net-(J1-Pin_2)*%
X109577500Y-97282000D03*
%TO.P,R3,2*%
%TO.N,Net-(J2-Pin_6)*%
X111402500Y-97282000D03*
%TD*%
D11*
%TO.P,C2,1*%
%TO.N,Net-(J2-Pin_5)*%
X111760000Y-75504000D03*
%TO.P,C2,2*%
%TO.N,Net-(J2-Pin_6)*%
X111760000Y-77404000D03*
%TD*%
D12*
%TO.P,R4,1*%
%TO.N,Net-(J2-Pin_6)*%
X89408000Y-109370500D03*
%TO.P,R4,2*%
%TO.N,Net-(J1-Pin_1)*%
X89408000Y-107545500D03*
%TD*%
D13*
%TO.P,M1,1*%
%TO.N,Net-(J2-Pin_5)*%
X118754000Y-113284000D03*
%TO.P,M1,2,-*%
%TO.N,Net-(J2-Pin_6)*%
X118754000Y-120904000D03*
%TO.P,M1,3*%
%TO.N,Net-(J1-Pin_2)*%
X95894000Y-120904000D03*
%TO.P,M1,4*%
%TO.N,Net-(J1-Pin_1)*%
X95894000Y-113284000D03*
%TD*%
D14*
%TO.P,J2,1,Pin_1*%
%TO.N,Net-(D1-A)*%
X107955000Y-69586000D03*
D15*
%TO.P,J2,2,Pin_2*%
%TO.N,Net-(J2-Pin_2)*%
X105415000Y-69586000D03*
%TO.P,J2,3,Pin_3*%
%TO.N,Net-(J2-Pin_3)*%
X102875000Y-69586000D03*
%TO.P,J2,4,Pin_4*%
%TO.N,Net-(J2-Pin_4)*%
X100335000Y-69586000D03*
%TO.P,J2,5,Pin_5*%
%TO.N,Net-(J2-Pin_5)*%
X97795000Y-69586000D03*
%TO.P,J2,6,Pin_6*%
%TO.N,Net-(J2-Pin_6)*%
X95255000Y-69586000D03*
%TO.P,J2,7,Pin_7*%
%TO.N,Net-(J2-Pin_7)*%
X92715000Y-69586000D03*
%TD*%
D16*
%TO.P,D1,1,K*%
%TO.N,Net-(D1-K)*%
X106654500Y-134874000D03*
%TO.P,D1,2,A*%
%TO.N,Net-(D1-A)*%
X108229500Y-134874000D03*
%TD*%
D11*
%TO.P,C3,1*%
%TO.N,Net-(J2-Pin_5)*%
X106934000Y-75438000D03*
%TO.P,C3,2*%
%TO.N,Net-(J2-Pin_6)*%
X106934000Y-77338000D03*
%TD*%
D17*
%TO.P,U1,1,GPIO2_A0_D0*%
%TO.N,Net-(J1-Pin_1)*%
X98824000Y-45466000D03*
%TO.P,U1,2,GPIO3_A1_D1*%
%TO.N,Net-(J1-Pin_2)*%
X98824000Y-48006000D03*
%TO.P,U1,3,GPIO4_A2_D2*%
%TO.N,Net-(D1-A)*%
X98824000Y-50546000D03*
%TO.P,U1,4,GPIO5_A3_D3*%
%TO.N,Net-(J1-Pin_4)*%
X98824000Y-53086000D03*
%TO.P,U1,5,GPIO6_D4_SDA*%
%TO.N,Net-(J1-Pin_5)*%
X98824000Y-55626000D03*
%TO.P,U1,6,GPIO7_D5_SCL*%
%TO.N,Net-(J1-Pin_6)*%
X98824000Y-58166000D03*
%TO.P,U1,7,GPIO21_D6_TX*%
%TO.N,Net-(J1-Pin_7)*%
X98824000Y-60706000D03*
%TO.P,U1,8,GPIO20_D7_RX*%
%TO.N,Net-(J2-Pin_1)*%
X115824000Y-60706000D03*
%TO.P,U1,9,GPIO8_D8_SCK*%
%TO.N,Net-(J2-Pin_2)*%
X115824000Y-58166000D03*
%TO.P,U1,10,GPIO9_D9_MISO*%
%TO.N,Net-(J2-Pin_3)*%
X115824000Y-55626000D03*
%TO.P,U1,11,GPIO10_D10_MOSI*%
%TO.N,Net-(J2-Pin_4)*%
X115824000Y-53086000D03*
%TO.P,U1,12,3V3*%
%TO.N,Net-(J2-Pin_5)*%
X115824000Y-50546000D03*
%TO.P,U1,13,GND*%
%TO.N,Net-(J2-Pin_6)*%
X115824000Y-48006000D03*
%TO.P,U1,14,5V*%
%TO.N,Net-(J2-Pin_7)*%
X115824000Y-45466000D03*
D18*
%TO.P,U1,15,BAT*%
%TO.N,unconnected-(U1-BAT-Pad15)*%
X109424000Y-53686000D03*
D19*
%TO.P,U1,16,GND*%
%TO.N,unconnected-(U1-GND-Pad16)*%
X102824000Y-52686000D03*
%TO.P,U1,17,MTDI*%
%TO.N,unconnected-(U1-MTDI-Pad17)*%
X102824000Y-50786000D03*
D20*
%TO.P,U1,18,MTDO*%
%TO.N,unconnected-(U1-MTDO-Pad18)*%
X106054000Y-44466000D03*
%TO.P,U1,19,CHIP_EN*%
%TO.N,Net-(U1-CHIP_EN)*%
X106054000Y-47046000D03*
%TO.P,U1,20,GND*%
%TO.N,unconnected-(U1-GND-Pad20)*%
X106054000Y-49586000D03*
%TO.P,U1,21,MTMS*%
%TO.N,unconnected-(U1-MTMS-Pad21)*%
X108594000Y-49586000D03*
%TO.P,U1,22,MTCK*%
%TO.N,unconnected-(U1-MTCK-Pad22)*%
X108594000Y-47046000D03*
%TO.P,U1,23*%
%TO.N,N/C*%
X108594000Y-44466000D03*
%TD*%
D14*
%TO.P,J1,1,Pin_1*%
%TO.N,Net-(J1-Pin_1)*%
X107955000Y-84836000D03*
D15*
%TO.P,J1,2,Pin_2*%
%TO.N,Net-(J1-Pin_2)*%
X105415000Y-84836000D03*
%TO.P,J1,3,Pin_3*%
%TO.N,Net-(J1-Pin_3)*%
X102875000Y-84836000D03*
%TO.P,J1,4,Pin_4*%
%TO.N,Net-(J1-Pin_4)*%
X100335000Y-84836000D03*
%TO.P,J1,5,Pin_5*%
%TO.N,Net-(J1-Pin_5)*%
X97795000Y-84836000D03*
%TO.P,J1,6,Pin_6*%
%TO.N,Net-(J1-Pin_6)*%
X95255000Y-84836000D03*
%TO.P,J1,7,Pin_7*%
%TO.N,Net-(J1-Pin_7)*%
X92715000Y-84836000D03*
%TD*%
D21*
%TO.P,R2,1*%
%TO.N,Net-(D1-K)*%
X101496500Y-134874000D03*
%TO.P,R2,2*%
%TO.N,Net-(J2-Pin_6)*%
X99671500Y-134874000D03*
%TD*%
D22*
%TO.N,Net-(D1-K)*%
X106654500Y-134874000D02*
X101496500Y-134874000D01*
%TO.N,Net-(D1-A)*%
X117983000Y-67437000D02*
X113411000Y-67437000D01*
X124206000Y-73660000D02*
X117983000Y-67437000D01*
X115824000Y-60706000D02*
X115824000Y-65024000D01*
X108229500Y-134874000D02*
X116840000Y-134874000D01*
X116840000Y-134874000D02*
X124206000Y-127508000D01*
X113411000Y-67437000D02*
X111262000Y-69586000D01*
X115824000Y-65024000D02*
X113411000Y-67437000D01*
X111262000Y-69586000D02*
X107955000Y-69586000D01*
X124206000Y-127508000D02*
X124206000Y-73660000D01*
%TO.N,Net-(J1-Pin_2)*%
X88424000Y-62394314D02*
X88424000Y-86114744D01*
X110490000Y-88138000D02*
X110490000Y-82042000D01*
X103378000Y-97282000D02*
X103378000Y-95250000D01*
X109577500Y-97282000D02*
X103378000Y-97282000D01*
X103378000Y-109728000D02*
X103378000Y-97282000D01*
X94234000Y-56584314D02*
X88424000Y-62394314D01*
X97324000Y-48006000D02*
X94234000Y-51096000D01*
X103378000Y-95250000D02*
X110490000Y-88138000D01*
X110490000Y-82042000D02*
X108209000Y-82042000D01*
X95894000Y-120904000D02*
X95894000Y-117212000D01*
X91031256Y-88722000D02*
X101529000Y-88722000D01*
X108209000Y-82042000D02*
X105415000Y-84836000D01*
X101529000Y-88722000D02*
X105415000Y-84836000D01*
X94234000Y-51096000D02*
X94234000Y-56584314D01*
X98824000Y-48006000D02*
X97324000Y-48006000D01*
X88424000Y-86114744D02*
X91031256Y-88722000D01*
X95894000Y-117212000D02*
X103378000Y-109728000D01*
%TO.N,Net-(J1-Pin_1)*%
X90865570Y-89122000D02*
X96012000Y-89122000D01*
X90710500Y-107545500D02*
X89408000Y-107545500D01*
X88024000Y-62228628D02*
X88024000Y-86280430D01*
X103669000Y-89122000D02*
X107955000Y-84836000D01*
X95894000Y-102362000D02*
X95894000Y-89240000D01*
X98824000Y-45466000D02*
X97324000Y-45466000D01*
X88024000Y-86280430D02*
X90865570Y-89122000D01*
X95894000Y-89240000D02*
X96012000Y-89122000D01*
X96012000Y-89122000D02*
X103669000Y-89122000D01*
X95894000Y-113284000D02*
X95894000Y-102362000D01*
X97324000Y-45466000D02*
X93414314Y-49375686D01*
X95894000Y-102362000D02*
X90710500Y-107545500D01*
X93414314Y-49375686D02*
X93414314Y-56838314D01*
X93414314Y-56838314D02*
X88024000Y-62228628D01*
%TO.N,Net-(J1-Pin_6)*%
X92969000Y-87122000D02*
X95255000Y-84836000D01*
X91694000Y-87122000D02*
X92969000Y-87122000D01*
X94938314Y-58166000D02*
X90024000Y-63080314D01*
X90024000Y-85452000D02*
X91694000Y-87122000D01*
X98824000Y-58166000D02*
X94938314Y-58166000D01*
X90024000Y-63080314D02*
X90024000Y-85452000D01*
%TO.N,Net-(J1-Pin_7)*%
X92964000Y-60706000D02*
X90424000Y-63246000D01*
X90424000Y-83820000D02*
X91440000Y-84836000D01*
X90424000Y-63246000D02*
X90424000Y-83820000D01*
X91440000Y-84836000D02*
X92715000Y-84836000D01*
X98824000Y-60706000D02*
X92964000Y-60706000D01*
%TO.N,Net-(J1-Pin_5)*%
X91528314Y-87522000D02*
X95109000Y-87522000D01*
X96912628Y-55626000D02*
X89624000Y-62914628D01*
X89624000Y-62914628D02*
X89624000Y-85617686D01*
X98824000Y-55626000D02*
X96912628Y-55626000D01*
X89624000Y-85617686D02*
X91528314Y-87522000D01*
X95109000Y-87522000D02*
X97795000Y-84836000D01*
%TO.N,Net-(J2-Pin_5)*%
X97795000Y-70871000D02*
X99822000Y-72898000D01*
X114046000Y-50546000D02*
X112338000Y-52254000D01*
X106934000Y-75438000D02*
X106934000Y-72898000D01*
X111760000Y-75504000D02*
X111760000Y-72898000D01*
X111760000Y-72898000D02*
X115570000Y-72898000D01*
X111262942Y-65856000D02*
X101525000Y-65856000D01*
X97795000Y-69586000D02*
X97795000Y-70871000D01*
X115824000Y-50546000D02*
X114046000Y-50546000D01*
X101525000Y-65856000D02*
X97795000Y-69586000D01*
X112338000Y-64780942D02*
X111262942Y-65856000D01*
X115570000Y-72898000D02*
X121920000Y-79248000D01*
X118754000Y-85462000D02*
X121920000Y-82296000D01*
X99822000Y-72898000D02*
X106934000Y-72898000D01*
X118754000Y-113284000D02*
X118754000Y-85462000D01*
X106934000Y-72898000D02*
X111760000Y-72898000D01*
X112338000Y-52254000D02*
X112338000Y-64780942D01*
X121920000Y-82296000D02*
X121920000Y-79248000D01*
%TO.N,Net-(J2-Pin_4)*%
X112738000Y-64946628D02*
X111428628Y-66256000D01*
X103665000Y-66256000D02*
X100335000Y-69586000D01*
X112738000Y-54902000D02*
X112738000Y-64946628D01*
X111428628Y-66256000D02*
X103665000Y-66256000D01*
X115824000Y-53086000D02*
X114554000Y-53086000D01*
X114554000Y-53086000D02*
X112738000Y-54902000D01*
%TO.N,Net-(J2-Pin_3)*%
X105805000Y-66656000D02*
X102875000Y-69586000D01*
X114324000Y-55626000D02*
X113138000Y-56812000D01*
X115824000Y-55626000D02*
X114324000Y-55626000D01*
X113138000Y-56812000D02*
X113138000Y-65112314D01*
X113138000Y-65112314D02*
X111594314Y-66656000D01*
X111594314Y-66656000D02*
X105805000Y-66656000D01*
%TO.N,Net-(J2-Pin_6)*%
X115824000Y-48006000D02*
X114300000Y-48006000D01*
X89408000Y-109370500D02*
X89408000Y-121920000D01*
X116586000Y-114808000D02*
X116586000Y-113538000D01*
X98044000Y-134874000D02*
X96774000Y-133604000D01*
X111760000Y-80010000D02*
X106934000Y-80010000D01*
X98044000Y-78994000D02*
X95255000Y-76205000D01*
X118110000Y-80010000D02*
X111760000Y-80010000D01*
X96774000Y-133604000D02*
X96774000Y-131572000D01*
X118754000Y-120904000D02*
X118754000Y-116976000D01*
X118110000Y-89408000D02*
X118110000Y-80010000D01*
X116586000Y-112014000D02*
X116586000Y-97282000D01*
X109474000Y-112014000D02*
X116586000Y-112014000D01*
X114808000Y-113538000D02*
X116586000Y-113538000D01*
X96774000Y-131572000D02*
X114808000Y-113538000D01*
X89408000Y-121920000D02*
X90932000Y-123444000D01*
X116586000Y-113538000D02*
X116586000Y-112014000D01*
X99385000Y-65456000D02*
X95255000Y-69586000D01*
X111938000Y-50368000D02*
X111938000Y-64615256D01*
X99671500Y-134874000D02*
X98044000Y-134874000D01*
X111760000Y-77404000D02*
X111760000Y-80010000D01*
X98044000Y-123444000D02*
X109474000Y-112014000D01*
X111097256Y-65456000D02*
X99385000Y-65456000D01*
X116586000Y-90932000D02*
X118110000Y-89408000D01*
X104082315Y-80010000D02*
X103066315Y-78994000D01*
X103066315Y-78994000D02*
X98044000Y-78994000D01*
X116586000Y-97282000D02*
X116586000Y-90932000D01*
X114300000Y-48006000D02*
X111938000Y-50368000D01*
X90932000Y-123444000D02*
X98044000Y-123444000D01*
X111402500Y-97282000D02*
X116586000Y-97282000D01*
X106934000Y-80010000D02*
X104082315Y-80010000D01*
X111938000Y-64615256D02*
X111097256Y-65456000D01*
X118754000Y-116976000D02*
X116586000Y-114808000D01*
X95255000Y-76205000D02*
X95255000Y-69586000D01*
X106934000Y-77338000D02*
X106934000Y-80010000D01*
%TO.N,Net-(J2-Pin_2)*%
X107945000Y-67056000D02*
X105415000Y-69586000D01*
X114324000Y-58166000D02*
X113538000Y-58952000D01*
X111760000Y-67056000D02*
X107945000Y-67056000D01*
X113538000Y-65278000D02*
X111760000Y-67056000D01*
X115824000Y-58166000D02*
X114324000Y-58166000D01*
X113538000Y-58952000D02*
X113538000Y-65278000D01*
%TO.N,Net-(J2-Pin_7)*%
X110931570Y-65056000D02*
X97245000Y-65056000D01*
X111506000Y-48768000D02*
X111506000Y-64481570D01*
X114808000Y-45466000D02*
X111506000Y-48768000D01*
X111506000Y-64481570D02*
X110931570Y-65056000D01*
X115824000Y-45466000D02*
X114808000Y-45466000D01*
X97245000Y-65056000D02*
X92715000Y-69586000D01*
%TO.N,Net-(J1-Pin_4)*%
X95758000Y-56214942D02*
X89224000Y-62748942D01*
X95758000Y-53848000D02*
X95758000Y-56214942D01*
X89224000Y-62748942D02*
X89224000Y-85783372D01*
X96520000Y-53086000D02*
X95758000Y-53848000D01*
X98824000Y-53086000D02*
X96520000Y-53086000D01*
X97249000Y-87922000D02*
X100335000Y-84836000D01*
X91362628Y-87922000D02*
X97249000Y-87922000D01*
X89224000Y-85783372D02*
X91362628Y-87922000D01*
%TO.N,Net-(J1-Pin_3)*%
X94996000Y-56388000D02*
X88824000Y-62560000D01*
X99389000Y-88322000D02*
X102875000Y-84836000D01*
X97324000Y-50546000D02*
X94996000Y-52874000D01*
X91196942Y-88322000D02*
X99389000Y-88322000D01*
X88824000Y-85949058D02*
X91196942Y-88322000D01*
X88824000Y-62560000D02*
X88824000Y-85949058D01*
X98824000Y-50546000D02*
X97324000Y-50546000D01*
X94996000Y-52874000D02*
X94996000Y-56388000D01*
%TD*%
M02*
