%TF.GenerationSoftware,KiCad,Pcbnew,8.0.8*%
%TF.CreationDate,2025-03-03T09:56:18-08:00*%
%TF.ProjectId,pLUFsPCB,704c5546-7350-4434-922e-6b696361645f,3*%
%TF.SameCoordinates,Original*%
%TF.FileFunction,Legend,Top*%
%TF.FilePolarity,Positive*%
%FSLAX46Y46*%
G04 Gerber Fmt 4.6, Leading zero omitted, Abs format (unit mm)*
G04 Created by KiCad (PCBNEW 8.0.8) date 2025-03-03 09:56:18*
%MOMM*%
%LPD*%
G01*
G04 APERTURE LIST*
%ADD10C,0.100000*%
%ADD11C,0.150000*%
%ADD12C,0.120000*%
G04 APERTURE END LIST*
D10*
X123047580Y-50119598D02*
X122333295Y-50119598D01*
X122333295Y-50119598D02*
X122190438Y-50071979D01*
X122190438Y-50071979D02*
X122095200Y-49976741D01*
X122095200Y-49976741D02*
X122047580Y-49833884D01*
X122047580Y-49833884D02*
X122047580Y-49738646D01*
X122047580Y-51024360D02*
X122571390Y-51024360D01*
X122571390Y-51024360D02*
X122666628Y-50976741D01*
X122666628Y-50976741D02*
X122714247Y-50881503D01*
X122714247Y-50881503D02*
X122714247Y-50691027D01*
X122714247Y-50691027D02*
X122666628Y-50595789D01*
X122095200Y-51024360D02*
X122047580Y-50929122D01*
X122047580Y-50929122D02*
X122047580Y-50691027D01*
X122047580Y-50691027D02*
X122095200Y-50595789D01*
X122095200Y-50595789D02*
X122190438Y-50548170D01*
X122190438Y-50548170D02*
X122285676Y-50548170D01*
X122285676Y-50548170D02*
X122380914Y-50595789D01*
X122380914Y-50595789D02*
X122428533Y-50691027D01*
X122428533Y-50691027D02*
X122428533Y-50929122D01*
X122428533Y-50929122D02*
X122476152Y-51024360D01*
X122047580Y-51929122D02*
X123047580Y-51929122D01*
X122095200Y-51929122D02*
X122047580Y-51833884D01*
X122047580Y-51833884D02*
X122047580Y-51643408D01*
X122047580Y-51643408D02*
X122095200Y-51548170D01*
X122095200Y-51548170D02*
X122142819Y-51500551D01*
X122142819Y-51500551D02*
X122238057Y-51452932D01*
X122238057Y-51452932D02*
X122523771Y-51452932D01*
X122523771Y-51452932D02*
X122619009Y-51500551D01*
X122619009Y-51500551D02*
X122666628Y-51548170D01*
X122666628Y-51548170D02*
X122714247Y-51643408D01*
X122714247Y-51643408D02*
X122714247Y-51833884D01*
X122714247Y-51833884D02*
X122666628Y-51929122D01*
X122095200Y-52786265D02*
X122047580Y-52691027D01*
X122047580Y-52691027D02*
X122047580Y-52500551D01*
X122047580Y-52500551D02*
X122095200Y-52405313D01*
X122095200Y-52405313D02*
X122190438Y-52357694D01*
X122190438Y-52357694D02*
X122571390Y-52357694D01*
X122571390Y-52357694D02*
X122666628Y-52405313D01*
X122666628Y-52405313D02*
X122714247Y-52500551D01*
X122714247Y-52500551D02*
X122714247Y-52691027D01*
X122714247Y-52691027D02*
X122666628Y-52786265D01*
X122666628Y-52786265D02*
X122571390Y-52833884D01*
X122571390Y-52833884D02*
X122476152Y-52833884D01*
X122476152Y-52833884D02*
X122380914Y-52357694D01*
X122714247Y-53262456D02*
X122047580Y-53262456D01*
X122619009Y-53262456D02*
X122666628Y-53310075D01*
X122666628Y-53310075D02*
X122714247Y-53405313D01*
X122714247Y-53405313D02*
X122714247Y-53548170D01*
X122714247Y-53548170D02*
X122666628Y-53643408D01*
X122666628Y-53643408D02*
X122571390Y-53691027D01*
X122571390Y-53691027D02*
X122047580Y-53691027D01*
X122047580Y-54929123D02*
X123047580Y-54929123D01*
X123047580Y-54929123D02*
X122333295Y-55262456D01*
X122333295Y-55262456D02*
X123047580Y-55595789D01*
X123047580Y-55595789D02*
X122047580Y-55595789D01*
X122047580Y-56214837D02*
X122095200Y-56119599D01*
X122095200Y-56119599D02*
X122142819Y-56071980D01*
X122142819Y-56071980D02*
X122238057Y-56024361D01*
X122238057Y-56024361D02*
X122523771Y-56024361D01*
X122523771Y-56024361D02*
X122619009Y-56071980D01*
X122619009Y-56071980D02*
X122666628Y-56119599D01*
X122666628Y-56119599D02*
X122714247Y-56214837D01*
X122714247Y-56214837D02*
X122714247Y-56357694D01*
X122714247Y-56357694D02*
X122666628Y-56452932D01*
X122666628Y-56452932D02*
X122619009Y-56500551D01*
X122619009Y-56500551D02*
X122523771Y-56548170D01*
X122523771Y-56548170D02*
X122238057Y-56548170D01*
X122238057Y-56548170D02*
X122142819Y-56500551D01*
X122142819Y-56500551D02*
X122095200Y-56452932D01*
X122095200Y-56452932D02*
X122047580Y-56357694D01*
X122047580Y-56357694D02*
X122047580Y-56214837D01*
X122047580Y-57119599D02*
X122095200Y-57024361D01*
X122095200Y-57024361D02*
X122142819Y-56976742D01*
X122142819Y-56976742D02*
X122238057Y-56929123D01*
X122238057Y-56929123D02*
X122523771Y-56929123D01*
X122523771Y-56929123D02*
X122619009Y-56976742D01*
X122619009Y-56976742D02*
X122666628Y-57024361D01*
X122666628Y-57024361D02*
X122714247Y-57119599D01*
X122714247Y-57119599D02*
X122714247Y-57262456D01*
X122714247Y-57262456D02*
X122666628Y-57357694D01*
X122666628Y-57357694D02*
X122619009Y-57405313D01*
X122619009Y-57405313D02*
X122523771Y-57452932D01*
X122523771Y-57452932D02*
X122238057Y-57452932D01*
X122238057Y-57452932D02*
X122142819Y-57405313D01*
X122142819Y-57405313D02*
X122095200Y-57357694D01*
X122095200Y-57357694D02*
X122047580Y-57262456D01*
X122047580Y-57262456D02*
X122047580Y-57119599D01*
X122714247Y-57881504D02*
X122047580Y-57881504D01*
X122619009Y-57881504D02*
X122666628Y-57929123D01*
X122666628Y-57929123D02*
X122714247Y-58024361D01*
X122714247Y-58024361D02*
X122714247Y-58167218D01*
X122714247Y-58167218D02*
X122666628Y-58262456D01*
X122666628Y-58262456D02*
X122571390Y-58310075D01*
X122571390Y-58310075D02*
X122047580Y-58310075D01*
X122095200Y-58833885D02*
X122047580Y-58833885D01*
X122047580Y-58833885D02*
X121952342Y-58786266D01*
X121952342Y-58786266D02*
X121904723Y-58738647D01*
X122666628Y-58786266D02*
X122619009Y-58833885D01*
X122619009Y-58833885D02*
X122571390Y-58786266D01*
X122571390Y-58786266D02*
X122619009Y-58738647D01*
X122619009Y-58738647D02*
X122666628Y-58786266D01*
X122666628Y-58786266D02*
X122571390Y-58786266D01*
X123047580Y-59881504D02*
X122047580Y-60214837D01*
X122047580Y-60214837D02*
X123047580Y-60548170D01*
X123047580Y-60786266D02*
X123047580Y-61405313D01*
X123047580Y-61405313D02*
X122666628Y-61071980D01*
X122666628Y-61071980D02*
X122666628Y-61214837D01*
X122666628Y-61214837D02*
X122619009Y-61310075D01*
X122619009Y-61310075D02*
X122571390Y-61357694D01*
X122571390Y-61357694D02*
X122476152Y-61405313D01*
X122476152Y-61405313D02*
X122238057Y-61405313D01*
X122238057Y-61405313D02*
X122142819Y-61357694D01*
X122142819Y-61357694D02*
X122095200Y-61310075D01*
X122095200Y-61310075D02*
X122047580Y-61214837D01*
X122047580Y-61214837D02*
X122047580Y-60929123D01*
X122047580Y-60929123D02*
X122095200Y-60833885D01*
X122095200Y-60833885D02*
X122142819Y-60786266D01*
X122142819Y-61833885D02*
X122095200Y-61881504D01*
X122095200Y-61881504D02*
X122047580Y-61833885D01*
X122047580Y-61833885D02*
X122095200Y-61786266D01*
X122095200Y-61786266D02*
X122142819Y-61833885D01*
X122142819Y-61833885D02*
X122047580Y-61833885D01*
X123047580Y-62500551D02*
X123047580Y-62595789D01*
X123047580Y-62595789D02*
X122999961Y-62691027D01*
X122999961Y-62691027D02*
X122952342Y-62738646D01*
X122952342Y-62738646D02*
X122857104Y-62786265D01*
X122857104Y-62786265D02*
X122666628Y-62833884D01*
X122666628Y-62833884D02*
X122428533Y-62833884D01*
X122428533Y-62833884D02*
X122238057Y-62786265D01*
X122238057Y-62786265D02*
X122142819Y-62738646D01*
X122142819Y-62738646D02*
X122095200Y-62691027D01*
X122095200Y-62691027D02*
X122047580Y-62595789D01*
X122047580Y-62595789D02*
X122047580Y-62500551D01*
X122047580Y-62500551D02*
X122095200Y-62405313D01*
X122095200Y-62405313D02*
X122142819Y-62357694D01*
X122142819Y-62357694D02*
X122238057Y-62310075D01*
X122238057Y-62310075D02*
X122428533Y-62262456D01*
X122428533Y-62262456D02*
X122666628Y-62262456D01*
X122666628Y-62262456D02*
X122857104Y-62310075D01*
X122857104Y-62310075D02*
X122952342Y-62357694D01*
X122952342Y-62357694D02*
X122999961Y-62405313D01*
X122999961Y-62405313D02*
X123047580Y-62500551D01*
D11*
X110323333Y-96086819D02*
X109990000Y-95610628D01*
X109751905Y-96086819D02*
X109751905Y-95086819D01*
X109751905Y-95086819D02*
X110132857Y-95086819D01*
X110132857Y-95086819D02*
X110228095Y-95134438D01*
X110228095Y-95134438D02*
X110275714Y-95182057D01*
X110275714Y-95182057D02*
X110323333Y-95277295D01*
X110323333Y-95277295D02*
X110323333Y-95420152D01*
X110323333Y-95420152D02*
X110275714Y-95515390D01*
X110275714Y-95515390D02*
X110228095Y-95563009D01*
X110228095Y-95563009D02*
X110132857Y-95610628D01*
X110132857Y-95610628D02*
X109751905Y-95610628D01*
X110656667Y-95086819D02*
X111275714Y-95086819D01*
X111275714Y-95086819D02*
X110942381Y-95467771D01*
X110942381Y-95467771D02*
X111085238Y-95467771D01*
X111085238Y-95467771D02*
X111180476Y-95515390D01*
X111180476Y-95515390D02*
X111228095Y-95563009D01*
X111228095Y-95563009D02*
X111275714Y-95658247D01*
X111275714Y-95658247D02*
X111275714Y-95896342D01*
X111275714Y-95896342D02*
X111228095Y-95991580D01*
X111228095Y-95991580D02*
X111180476Y-96039200D01*
X111180476Y-96039200D02*
X111085238Y-96086819D01*
X111085238Y-96086819D02*
X110799524Y-96086819D01*
X110799524Y-96086819D02*
X110704286Y-96039200D01*
X110704286Y-96039200D02*
X110656667Y-95991580D01*
X113799580Y-76620666D02*
X113847200Y-76668285D01*
X113847200Y-76668285D02*
X113894819Y-76811142D01*
X113894819Y-76811142D02*
X113894819Y-76906380D01*
X113894819Y-76906380D02*
X113847200Y-77049237D01*
X113847200Y-77049237D02*
X113751961Y-77144475D01*
X113751961Y-77144475D02*
X113656723Y-77192094D01*
X113656723Y-77192094D02*
X113466247Y-77239713D01*
X113466247Y-77239713D02*
X113323390Y-77239713D01*
X113323390Y-77239713D02*
X113132914Y-77192094D01*
X113132914Y-77192094D02*
X113037676Y-77144475D01*
X113037676Y-77144475D02*
X112942438Y-77049237D01*
X112942438Y-77049237D02*
X112894819Y-76906380D01*
X112894819Y-76906380D02*
X112894819Y-76811142D01*
X112894819Y-76811142D02*
X112942438Y-76668285D01*
X112942438Y-76668285D02*
X112990057Y-76620666D01*
X112990057Y-76239713D02*
X112942438Y-76192094D01*
X112942438Y-76192094D02*
X112894819Y-76096856D01*
X112894819Y-76096856D02*
X112894819Y-75858761D01*
X112894819Y-75858761D02*
X112942438Y-75763523D01*
X112942438Y-75763523D02*
X112990057Y-75715904D01*
X112990057Y-75715904D02*
X113085295Y-75668285D01*
X113085295Y-75668285D02*
X113180533Y-75668285D01*
X113180533Y-75668285D02*
X113323390Y-75715904D01*
X113323390Y-75715904D02*
X113894819Y-76287332D01*
X113894819Y-76287332D02*
X113894819Y-75668285D01*
X89862819Y-105576666D02*
X89386628Y-105909999D01*
X89862819Y-106148094D02*
X88862819Y-106148094D01*
X88862819Y-106148094D02*
X88862819Y-105767142D01*
X88862819Y-105767142D02*
X88910438Y-105671904D01*
X88910438Y-105671904D02*
X88958057Y-105624285D01*
X88958057Y-105624285D02*
X89053295Y-105576666D01*
X89053295Y-105576666D02*
X89196152Y-105576666D01*
X89196152Y-105576666D02*
X89291390Y-105624285D01*
X89291390Y-105624285D02*
X89339009Y-105671904D01*
X89339009Y-105671904D02*
X89386628Y-105767142D01*
X89386628Y-105767142D02*
X89386628Y-106148094D01*
X89196152Y-104719523D02*
X89862819Y-104719523D01*
X88815200Y-104957618D02*
X89529485Y-105195713D01*
X89529485Y-105195713D02*
X89529485Y-104576666D01*
D10*
X105244476Y-98501419D02*
X105244476Y-97501419D01*
X105244476Y-97501419D02*
X105577809Y-98215704D01*
X105577809Y-98215704D02*
X105911142Y-97501419D01*
X105911142Y-97501419D02*
X105911142Y-98501419D01*
X106911142Y-98501419D02*
X106339714Y-98501419D01*
X106625428Y-98501419D02*
X106625428Y-97501419D01*
X106625428Y-97501419D02*
X106530190Y-97644276D01*
X106530190Y-97644276D02*
X106434952Y-97739514D01*
X106434952Y-97739514D02*
X106339714Y-97787133D01*
D11*
X109739819Y-69919333D02*
X110454104Y-69919333D01*
X110454104Y-69919333D02*
X110596961Y-69966952D01*
X110596961Y-69966952D02*
X110692200Y-70062190D01*
X110692200Y-70062190D02*
X110739819Y-70205047D01*
X110739819Y-70205047D02*
X110739819Y-70300285D01*
X109835057Y-69490761D02*
X109787438Y-69443142D01*
X109787438Y-69443142D02*
X109739819Y-69347904D01*
X109739819Y-69347904D02*
X109739819Y-69109809D01*
X109739819Y-69109809D02*
X109787438Y-69014571D01*
X109787438Y-69014571D02*
X109835057Y-68966952D01*
X109835057Y-68966952D02*
X109930295Y-68919333D01*
X109930295Y-68919333D02*
X110025533Y-68919333D01*
X110025533Y-68919333D02*
X110168390Y-68966952D01*
X110168390Y-68966952D02*
X110739819Y-69538380D01*
X110739819Y-69538380D02*
X110739819Y-68919333D01*
X106703905Y-133898819D02*
X106703905Y-132898819D01*
X106703905Y-132898819D02*
X106942000Y-132898819D01*
X106942000Y-132898819D02*
X107084857Y-132946438D01*
X107084857Y-132946438D02*
X107180095Y-133041676D01*
X107180095Y-133041676D02*
X107227714Y-133136914D01*
X107227714Y-133136914D02*
X107275333Y-133327390D01*
X107275333Y-133327390D02*
X107275333Y-133470247D01*
X107275333Y-133470247D02*
X107227714Y-133660723D01*
X107227714Y-133660723D02*
X107180095Y-133755961D01*
X107180095Y-133755961D02*
X107084857Y-133851200D01*
X107084857Y-133851200D02*
X106942000Y-133898819D01*
X106942000Y-133898819D02*
X106703905Y-133898819D01*
X108227714Y-133898819D02*
X107656286Y-133898819D01*
X107942000Y-133898819D02*
X107942000Y-132898819D01*
X107942000Y-132898819D02*
X107846762Y-133041676D01*
X107846762Y-133041676D02*
X107751524Y-133136914D01*
X107751524Y-133136914D02*
X107656286Y-133184533D01*
X101478580Y-76293414D02*
X101526200Y-76341033D01*
X101526200Y-76341033D02*
X101573819Y-76483890D01*
X101573819Y-76483890D02*
X101573819Y-76579128D01*
X101573819Y-76579128D02*
X101526200Y-76721985D01*
X101526200Y-76721985D02*
X101430961Y-76817223D01*
X101430961Y-76817223D02*
X101335723Y-76864842D01*
X101335723Y-76864842D02*
X101145247Y-76912461D01*
X101145247Y-76912461D02*
X101002390Y-76912461D01*
X101002390Y-76912461D02*
X100811914Y-76864842D01*
X100811914Y-76864842D02*
X100716676Y-76817223D01*
X100716676Y-76817223D02*
X100621438Y-76721985D01*
X100621438Y-76721985D02*
X100573819Y-76579128D01*
X100573819Y-76579128D02*
X100573819Y-76483890D01*
X100573819Y-76483890D02*
X100621438Y-76341033D01*
X100621438Y-76341033D02*
X100669057Y-76293414D01*
X100573819Y-75960080D02*
X100573819Y-75341033D01*
X100573819Y-75341033D02*
X100954771Y-75674366D01*
X100954771Y-75674366D02*
X100954771Y-75531509D01*
X100954771Y-75531509D02*
X101002390Y-75436271D01*
X101002390Y-75436271D02*
X101050009Y-75388652D01*
X101050009Y-75388652D02*
X101145247Y-75341033D01*
X101145247Y-75341033D02*
X101383342Y-75341033D01*
X101383342Y-75341033D02*
X101478580Y-75388652D01*
X101478580Y-75388652D02*
X101526200Y-75436271D01*
X101526200Y-75436271D02*
X101573819Y-75531509D01*
X101573819Y-75531509D02*
X101573819Y-75817223D01*
X101573819Y-75817223D02*
X101526200Y-75912461D01*
X101526200Y-75912461D02*
X101478580Y-75960080D01*
X113562095Y-40540819D02*
X113562095Y-41350342D01*
X113562095Y-41350342D02*
X113609714Y-41445580D01*
X113609714Y-41445580D02*
X113657333Y-41493200D01*
X113657333Y-41493200D02*
X113752571Y-41540819D01*
X113752571Y-41540819D02*
X113943047Y-41540819D01*
X113943047Y-41540819D02*
X114038285Y-41493200D01*
X114038285Y-41493200D02*
X114085904Y-41445580D01*
X114085904Y-41445580D02*
X114133523Y-41350342D01*
X114133523Y-41350342D02*
X114133523Y-40540819D01*
X115133523Y-41540819D02*
X114562095Y-41540819D01*
X114847809Y-41540819D02*
X114847809Y-40540819D01*
X114847809Y-40540819D02*
X114752571Y-40683676D01*
X114752571Y-40683676D02*
X114657333Y-40778914D01*
X114657333Y-40778914D02*
X114562095Y-40826533D01*
X110684819Y-85169333D02*
X111399104Y-85169333D01*
X111399104Y-85169333D02*
X111541961Y-85216952D01*
X111541961Y-85216952D02*
X111637200Y-85312190D01*
X111637200Y-85312190D02*
X111684819Y-85455047D01*
X111684819Y-85455047D02*
X111684819Y-85550285D01*
X111684819Y-84169333D02*
X111684819Y-84740761D01*
X111684819Y-84455047D02*
X110684819Y-84455047D01*
X110684819Y-84455047D02*
X110827676Y-84550285D01*
X110827676Y-84550285D02*
X110922914Y-84645523D01*
X110922914Y-84645523D02*
X110970533Y-84740761D01*
X100417333Y-136978819D02*
X100084000Y-136502628D01*
X99845905Y-136978819D02*
X99845905Y-135978819D01*
X99845905Y-135978819D02*
X100226857Y-135978819D01*
X100226857Y-135978819D02*
X100322095Y-136026438D01*
X100322095Y-136026438D02*
X100369714Y-136074057D01*
X100369714Y-136074057D02*
X100417333Y-136169295D01*
X100417333Y-136169295D02*
X100417333Y-136312152D01*
X100417333Y-136312152D02*
X100369714Y-136407390D01*
X100369714Y-136407390D02*
X100322095Y-136455009D01*
X100322095Y-136455009D02*
X100226857Y-136502628D01*
X100226857Y-136502628D02*
X99845905Y-136502628D01*
X100798286Y-136074057D02*
X100845905Y-136026438D01*
X100845905Y-136026438D02*
X100941143Y-135978819D01*
X100941143Y-135978819D02*
X101179238Y-135978819D01*
X101179238Y-135978819D02*
X101274476Y-136026438D01*
X101274476Y-136026438D02*
X101322095Y-136074057D01*
X101322095Y-136074057D02*
X101369714Y-136169295D01*
X101369714Y-136169295D02*
X101369714Y-136264533D01*
X101369714Y-136264533D02*
X101322095Y-136407390D01*
X101322095Y-136407390D02*
X100750667Y-136978819D01*
X100750667Y-136978819D02*
X101369714Y-136978819D01*
D12*
%TO.C,R3*%
X110262936Y-96547000D02*
X110717064Y-96547000D01*
X110262936Y-98017000D02*
X110717064Y-98017000D01*
%TO.C,C2*%
X111025000Y-76192748D02*
X111025000Y-76715252D01*
X112495000Y-76192748D02*
X112495000Y-76715252D01*
%TO.C,R4*%
X88673000Y-108685064D02*
X88673000Y-108230936D01*
X90143000Y-108685064D02*
X90143000Y-108230936D01*
%TO.C,J2*%
X91385000Y-68256000D02*
X91385000Y-70916000D01*
X106685000Y-68256000D02*
X91385000Y-68256000D01*
X106685000Y-68256000D02*
X106685000Y-70916000D01*
X106685000Y-70916000D02*
X91385000Y-70916000D01*
X107955000Y-68256000D02*
X109285000Y-68256000D01*
X109285000Y-68256000D02*
X109285000Y-69586000D01*
%TO.C,D1*%
X105957000Y-134139000D02*
X105957000Y-135609000D01*
X105957000Y-135609000D02*
X108242000Y-135609000D01*
X108242000Y-134139000D02*
X105957000Y-134139000D01*
%TO.C,C3*%
X106199000Y-76126748D02*
X106199000Y-76649252D01*
X107669000Y-76126748D02*
X107669000Y-76649252D01*
%TO.C,U1*%
X100624000Y-63586000D02*
X114024000Y-63586000D01*
X103324000Y-41386000D02*
X111324000Y-41386000D01*
X103324000Y-42586000D02*
X100724000Y-42586000D01*
X103324000Y-42586000D02*
X103324000Y-41386000D01*
X111324000Y-41386000D02*
X111324000Y-42586000D01*
X113924000Y-42586000D02*
X111324000Y-42586000D01*
X98511108Y-44081320D02*
G75*
G02*
X100723532Y-42586001I2135279J-774913D01*
G01*
X100624000Y-63586000D02*
G75*
G02*
X98524000Y-62086000I74105J2323747D01*
G01*
X113924000Y-42586001D02*
G75*
G02*
X116128036Y-44084535I64720J-2274919D01*
G01*
X116124000Y-62086000D02*
G75*
G02*
X114024000Y-63586000I-2174100J823740D01*
G01*
%TO.C,J1*%
X91385000Y-83506000D02*
X91385000Y-86166000D01*
X106685000Y-83506000D02*
X91385000Y-83506000D01*
X106685000Y-83506000D02*
X106685000Y-86166000D01*
X106685000Y-86166000D02*
X91385000Y-86166000D01*
X107955000Y-83506000D02*
X109285000Y-83506000D01*
X109285000Y-83506000D02*
X109285000Y-84836000D01*
%TO.C,R2*%
X100811064Y-134139000D02*
X100356936Y-134139000D01*
X100811064Y-135609000D02*
X100356936Y-135609000D01*
%TD*%
M02*
